<?xml version="1.0" standalone="no"?>
<!DOCTYPE svg PUBLIC "-//W3C//DTD SVG 1.1//EN" "http://www.w3.org/Graphics/SVG/1.1/DTD/svg11.dtd" >
<!--
2013-9-30: Created.
-->
<svg>
<metadata>
Created by iconfont
</metadata>
<defs>

<font id="iconfont" horiz-adv-x="1024" >
  <font-face
    font-family="iconfont"
    font-weight="500"
    font-stretch="normal"
    units-per-em="1024"
    ascent="896"
    descent="-128"
  />
    <missing-glyph />
    
    <glyph glyph-name="cc-star-half" unicode="&#59062;" d="M785.352-49.397c-4.075 0-8.152 0.97-11.834 3.007l-261.311 142.488-261.264-142.487c-8.343-4.56-18.528-3.881-26.287 1.599-7.761 5.528-11.64 14.987-10.089 24.348l47.579 285.365-189.583 189.606c-6.594 6.547-8.971 16.295-6.11 25.122 2.814 8.851 10.379 15.398 19.546 16.949l285.513 47.578 118.53 236.99c4.172 8.391 12.804 13.701 22.166 13.701 9.359 0 17.993-5.31 22.164-13.701l118.53-236.99 285.512-47.578c9.218-1.551 16.732-8.051 19.593-16.949 2.813-8.875 0.486-18.575-6.109-25.122l-189.632-189.607 47.578-285.365c1.501-9.36-2.377-18.82-10.088-24.348-4.267-3.006-9.36-4.607-14.402-4.607zM512.206 149.253c4.074 0 8.197-0.968 11.881-3.006l228.379-124.546-41.269 247.635c-1.309 7.905 1.258 16.006 6.933 21.632l164.558 164.556-250.399 41.71c-7.856 1.309-14.549 6.305-18.14 13.408l-101.943 203.915z"  horiz-adv-x="1024" />

    
    <glyph glyph-name="user" unicode="&#59055;" d="M515.434 828.021c-245.743 0-444.958-199.214-444.958-444.958 0-245.746 199.214-444.963 444.958-444.963 245.746 0 444.963 199.217 444.963 444.963 0 245.743-199.217 444.958-444.963 444.958v0zM797.275 114.447c-29.633 25.881-80.542 59.684-91.207 66.949v0c-21.819 15.25-89.323 42.434-118.018 50.114-13.463 6.377-13.259 32.942-13.005 39.397h-1.469c44.295 33.205 74.821 99.591 74.821 167.721 0 97.765-22.986 192.057-132.996 192.057-110.287 0-132.996-95.593-132.996-192.057 0-67.346 30.656-134.292 75.116-167.721h-1.759c0.251-6.458 0.454-33.022-13.009-39.397-28.695-7.676-98.407-36.494-118.018-50.114-7.973-5.535-61.71-41.467-90.493-67.625-66.991 69.932-108.151 164.803-108.151 269.292 0 215.024 174.314 389.338 389.338 389.338 215.028 0 389.343-174.314 389.343-389.338 0.001-104.151-40.892-198.748-107.5-268.614v0zM797.275 114.447z"  horiz-adv-x="1024" />

    
    <glyph glyph-name="moonbyueliang" unicode="&#59040;" d="M529.611373-127.38565c-146.112965 0-270.826063 51.707812-374.344078 155.225827C51.74928 131.358192 0.041469 256.173682 0.041469 402.184255c0 105.053891 29.693595 202.326012 88.978393 292.22593 59.38719 89.797526 137.000103 155.942569 232.83874 198.63991 6.041111 4.607627 12.184613 3.788493 18.225724-2.252618 7.576986-4.607627 9.931996-11.365479 6.860244-20.580733C322.677735 812.263039 310.493122 753.797374 310.493122 694.410185c0-135.464227 48.328885-251.474031 144.986656-348.131801 96.657771-96.657771 212.667574-144.986656 348.131801-144.986656 74.541162 0 139.252721 11.365479 194.032283 34.19883C1003.684974 240.200576 1009.726084 239.381442 1015.767195 233.340331c7.576986-4.607627 9.931996-11.365479 6.860244-20.580733C983.104241 109.241583 918.802249 26.713868 829.721465-34.925939 740.743072-96.565746 640.706375-127.38565 529.611373-127.38565z"  horiz-adv-x="1024" />

    
    <glyph glyph-name="user1" unicode="&#58882;" d="M951.333615 608.64027m-223.980237 0a218.879 218.879 0 1 0 447.960475 0 218.879 218.879 0 1 0-447.960475 0ZM1335.466389 0.517025c-0.490164 212.177424-172.280762 384.030443-384.132774 384.030443-211.854059 0-383.644657-171.85302-384.134821-384.030443L1335.466389 0.517025z"  horiz-adv-x="1872" />

    
    <glyph glyph-name="star" unicode="&#59153;" d="M129.832 11.128a381.336 81.488 0 1 1 762.672 0 381.336 81.488 0 1 1-762.672 0ZM208.52 652.776c-22.608 66.672 13.44 102.72 80.112 80.112l38.12-12.92L459.2 675.056c6.176-2.096 15.192-0.856 20.024 2.744l111.376 83.112 33.68 25.136c56.424 42.104 101.848 18.96 100.952-51.432l-0.512-40.024-1.784-139.96c-0.088-6.584 2.824-14.072 6.456-16.648 3.64-2.568 52.992-38.84 109.672-80.592l41.896-30.864c56.68-41.76 47.664-91.728-20.032-111.056l-41.832-11.936c-67.696-19.32-127.032-36.36-131.848-37.856-4.832-1.504-10.48-8.2-12.56-14.896-2.08-6.696-20.872-67.176-41.776-134.4l-11.424-36.736c-20.896-67.224-71.248-75.2-111.896-17.72l-28.4 40.144-78.176 110.544c-2.344 3.32-9.384 5.976-15.632 5.896l-139.36-1.784-41.216-0.528c-70.4-0.896-93.536 44.528-51.44 100.944l26.032 34.888L264.064 462.8c3.368 4.504 4.312 13.512 2.112 20.016l-45.12 133.04-12.536 36.92zM566.6-0.488c-27.272 0-54.488 17.24-76.616 48.544l-28.4 40.144-75.072 106.16-181.768-2.176c-57.552 0-79.488 26.6-87.44 42.456-8.024 16.008-16.256 49.872 18.808 96.856l107.224 143.688a1.632 1.632 0 0 1-0.032 0.312l-57.528 169.584c-15.696 46.272-5.656 74.584 5.528 90.184 19.992 27.872 59.288 35.856 105.024 20.36l169.752-57.56 0.168 0.016 143.664 107.2c22.928 17.112 45.304 25.792 66.488 25.792 18.512 0 34.968-6.768 47.608-19.576 16.912-17.128 25.624-43.816 25.2-77.192l-0.832-64.472c-0.752-58.376-1.368-107.024-1.464-114.936 13.904-10.144 62.248-45.696 106.352-78.184l41.896-30.864c47.464-34.968 49.192-69.84 46.008-87.52-3.184-17.68-17-49.752-73.688-65.936l-41.832-11.936a35027.144 35027.144 0 0 1-128.04-36.728 0.856 0.856 0 0 1-0.072-0.152l-53.168-171.064c-14.392-46.384-42.744-72.992-77.768-73zM387.088 242.496c11.472 0 27.16-4.208 35.52-16.056l78.168-110.528 28.4-40.144c12.512-17.696 26.504-28.264 37.432-28.256 12.184 0 24.432 15.04 31.952 39.248l53.2 171.128c3.768 12.08 13.984 26.24 28.368 30.704 5.528 1.72 71.656 20.688 132.384 38.024l41.832 11.936c22.792 6.504 37.6 17.08 39.624 28.296 2.024 11.216-8.168 26.304-27.24 40.352l-41.896 30.864c-61.624 45.4-106.256 78.176-109.28 80.312-11.704 8.296-16.768 24.336-16.608 36.568l1.472 115.496 0.832 64.472c0.248 19.664-3.888 35.288-11.36 42.856-3.56 3.616-7.84 5.296-13.456 5.296-10.312 0-23.736-5.776-37.792-16.264L493.552 658.56c-10.912-8.136-28.664-10.784-42.08-6.232L280.92 710.16c-24.128 8.184-43.456 7.104-50.592-2.864-6.36-8.872-6.016-26.368 0.912-46.808l57.648-169.984c4.744-14 2.432-31.304-5.616-42.08L174.584 302.784c-14.136-18.944-19.504-36.376-14.368-46.632 5.016-10 21.664-15.976 44.528-15.976l42.952 0.536 139.368 1.784h0.024zM407.296 182.56a23.976 23.976 0 0 0-19.928 10.592l-20.152 29.944H149.624c-10.704 0-20.208 5.672-24.832 14.8-4.864 9.632-3.544 21.144 3.536 30.776l73.568 100.024c34.4 46.768 65.376 88.84 72.896 99.016a1.816 1.816 0 0 1-0.032 0.328c-1.736 5.064-21.912 58.88-49.016 130.296l-4.776 12.592c-22.096 58.224-4.672 87.296 7.688 99.448 11.44 11.248 38.048 27.168 87.744 7.344 57.136-22.792 103.344-40.96 116.336-45.872 1.712 0.664 4.232 1.984 6.384 3.872l15.472 13.584a24 24 0 1 0 31.656-36.08l-15.456-13.56c-12.872-11.304-33.4-20.168-50.24-14.456-7.664 2.6-68.536 26.64-121.928 47.936-19.36 7.728-32.184 7.072-36.312 3.016-5.168-5.088-6.272-22.336 3.536-48.192l4.776-12.592c22.424-59.08 47.152-124.728 49.72-132.304 4.744-14 2.432-31.312-5.624-42.08-3.328-4.472-36.712-49.8-74.152-100.704l-50.872-69.168h181.808c12.728 0 25.84-6.784 32.632-16.88l23.048-34.24a24 24 0 0 0-6.504-33.32 23.744 23.744 0 0 0-13.384-4.12zM599.296 0.832l-46.592 11.544 33.2 133.96c15.208 61.36 32.44 129.664 34.952 137.752 3.768 12.08 13.984 26.24 28.368 30.704 7.048 2.192 84.76 20.24 135.272 31.832l29.376 6.744c28.376 6.512 37.296 16.584 38.056 20.992 0.76 4.408-4.312 16.872-28.912 32.448l-23.728 15.032c-41.984 26.584-110.544 70.144-115.776 73.84-11.688 8.272-16.752 24.312-16.592 36.552 0.088 7.08 1.384 73.52 2.616 135.488l2.472 123.352 47.984-0.96-2.472-123.344c-1.384-69.672-2.456-125.056-2.592-134.32 12.888-8.352 56.024-35.848 110.048-70.056l23.728-15.032c50.568-32.024 53.368-64.552 50.536-81.096-2.824-16.544-16.288-46.296-74.632-59.68l-29.376-6.744c-64.416-14.784-114.64-26.584-128.552-30.056l-0.008-0.008c-1.712-5.552-16.184-62.416-34.168-134.984l-33.208-133.96zM566.6-0.488c-27.272 0-54.488 17.24-76.616 48.544l-28.4 40.144-75.072 106.16-181.768-2.176c-57.552 0-79.488 26.6-87.44 42.456-8.024 16.008-16.256 49.872 18.808 96.856l107.224 143.688a1.632 1.632 0 0 1-0.032 0.312l-57.528 169.584c-15.696 46.272-5.656 74.584 5.528 90.184 19.992 27.872 59.288 35.856 105.024 20.36l169.752-57.56 0.168 0.016 143.664 107.2c22.928 17.112 45.304 25.792 66.488 25.792 18.512 0 34.968-6.768 47.608-19.576 16.912-17.128 25.624-43.816 25.2-77.192l-0.832-64.472c-0.752-58.376-1.368-107.024-1.464-114.936 13.904-10.144 62.248-45.696 106.352-78.184l41.896-30.864c47.464-34.968 49.192-69.84 46.008-87.52-3.184-17.68-17-49.752-73.688-65.936l-41.832-11.936a35027.144 35027.144 0 0 1-128.04-36.728 0.856 0.856 0 0 1-0.072-0.152l-53.168-171.064c-14.392-46.384-42.744-72.992-77.768-73zM387.088 242.496c11.472 0 27.16-4.208 35.52-16.056l78.168-110.528 28.4-40.144c12.512-17.696 26.504-28.264 37.432-28.256 12.184 0 24.432 15.04 31.952 39.248l53.2 171.128c3.768 12.08 13.984 26.24 28.368 30.704 5.528 1.72 71.656 20.688 132.384 38.024l41.832 11.936c22.792 6.504 37.6 17.08 39.624 28.296 2.024 11.216-8.168 26.304-27.24 40.352l-41.896 30.864c-61.624 45.4-106.256 78.176-109.28 80.312-11.704 8.296-16.768 24.336-16.608 36.568l1.472 115.496 0.832 64.472c0.248 19.664-3.888 35.288-11.36 42.856-3.56 3.616-7.84 5.296-13.456 5.296-10.312 0-23.736-5.776-37.792-16.264L493.552 658.56c-10.912-8.136-28.664-10.784-42.08-6.232L280.92 710.16c-24.128 8.184-43.456 7.104-50.592-2.864-6.36-8.872-6.016-26.368 0.912-46.808l57.648-169.984c4.744-14 2.432-31.304-5.616-42.08L174.584 302.784c-14.136-18.944-19.504-36.376-14.368-46.632 5.016-10 21.664-15.976 44.528-15.976l42.952 0.536 139.368 1.784h0.024z"  horiz-adv-x="1024" />

    
    <glyph glyph-name="moon" unicode="&#58928;" d="M556.8-83.2c-262.4 0-473.6 211.2-473.6 467.2s211.2 467.2 467.2 467.2c12.8 0 19.2-6.4 25.6-12.8 6.4-12.8 6.4-19.2 0-32-57.6-70.4-83.2-160-83.2-249.6 0-230.4 185.6-416 416-416h6.4c12.8 0 19.2-6.4 25.6-12.8 6.4-12.8 6.4-19.2 0-32a498.56 498.56 0 0 0-384-179.2z m-64 876.8c-198.4-32-352-204.8-352-409.6 0-230.4 185.6-416 416-416 108.8 0 211.2 44.8 288 121.6-236.8 25.6-416 230.4-416 467.2 0 89.6 25.6 166.4 64 236.8zM582.4 12.8c-192 0-352 134.4-384 320 0 6.4 6.4 12.8 12.8 19.2 6.4 0 12.8-6.4 19.2-12.8 32-172.8 179.2-294.4 352-294.4 6.4 0 12.8-6.4 12.8-12.8 0-12.8-6.4-19.2-12.8-19.2zM204.8 364.8c-6.4 0-12.8 6.4-12.8 12.8v19.2c0 6.4 6.4 12.8 12.8 12.8s12.8-6.4 12.8-12.8v-19.2c6.4-6.4 0-12.8-12.8-12.8zM620.8 588.8m-25.6 0a25.6 25.6 0 1 1 51.2 0 25.6 25.6 0 1 1-51.2 0ZM793.6 710.4m-25.6 0a25.6 25.6 0 1 1 51.2 0 25.6 25.6 0 1 1-51.2 0ZM736 480m-25.6 0a25.6 25.6 0 1 1 51.2 0 25.6 25.6 0 1 1-51.2 0Z"  horiz-adv-x="1024" />

    
    <glyph glyph-name="gszs" unicode="&#58884;" d="M315.733333 166.4h388.266667v-21.333333H315.733333zM396.8 307.2h234.666667v-21.333333H396.8zM768 802.133333H256C162.133333 802.133333 85.333333 729.6 85.333333 640v-529.066667c0-89.6 76.8-162.133333 170.666667-162.133333h512c93.866667 0 170.666667 72.533333 170.666667 162.133333V640c0 89.6-76.8 162.133333-170.666667 162.133333zM379.733333 755.2c0 4.266667 0 4.266667 4.266667 4.266667h260.266667l4.266666-4.266667v-311.466667c0-4.266667 0-4.266667-4.266666-8.533333l-115.2 85.333333-17.066667 8.533334-12.8-8.533334-115.2-85.333333c-4.266667 0-4.266667 4.266667-4.266667 8.533333V755.2zM896 110.933333c0-64-55.466667-119.466667-128-119.466666H256c-72.533333 0-128 55.466667-128 119.466666V640c0 64 55.466667 119.466667 128 119.466667h102.4V443.733333c0-17.066667 12.8-29.866667 29.866667-29.866666L512 503.466667l123.733333-89.6c17.066667 0 29.866667 12.8 29.866667 29.866666V755.2v4.266667H768c72.533333 0 128-55.466667 128-119.466667v-529.066667z"  horiz-adv-x="1024" />

    
    <glyph glyph-name="shoucang" unicode="&#58885;" d="M597.333333 473.6l-81.066666 174.933333-76.8-179.2-179.2-21.333333 140.8-136.533333-42.666667-179.2 157.866667 106.666666 162.133333-102.4-38.4 179.2 140.8 140.8-183.466667 17.066667z m55.466667-290.133333l-128 81.066666-128-85.333333 34.133333 140.8-119.466666 115.2 145.066666 17.066667L520.533333 597.333333l64-145.066666 145.066667-12.8-115.2-115.2 38.4-140.8zM512 853.333333C251.733333 853.333333 42.666667 644.266667 42.666667 384s209.066667-469.333333 469.333333-469.333333 469.333333 209.066667 469.333333 469.333333S772.266667 853.333333 512 853.333333z m0-896C277.333333-42.66666699999996 85.333333 149.33333300000004 85.333333 384S277.333333 810.666667 512 810.666667s426.666667-192 426.666667-426.666667-192-426.666667-426.666667-426.666667z"  horiz-adv-x="1024" />

    
    <glyph glyph-name="shezhi" unicode="&#58889;" d="M512 541.866667C422.4 541.866667 349.866667 469.333333 349.866667 384c0-89.6 72.533333-157.866667 162.133333-157.866667s162.133333 72.533333 162.133333 157.866667c0 89.6-72.533333 157.866667-162.133333 157.866667z m0-294.4c-76.8 0-140.8 64-140.8 136.533333s64 136.533333 140.8 136.533333 140.8-64 140.8-136.533333-64-136.533333-140.8-136.533333zM942.933333 465.066667c0 17.066667-12.8 29.866667-29.866666 34.133333-38.4 8.533333-68.266667 29.866667-89.6 64s-25.6 72.533333-12.8 106.666667c4.266667 12.8 0 34.133333-12.8 46.933333-38.4 38.4-89.6 64-140.8 85.333333-12.8 8.533333-29.866667 4.266667-46.933334-12.8-25.6-29.866667-59.733333-42.666667-98.133333-42.666666-34.133333 0-72.533333 17.066667-102.4 46.933333-12.8 8.533333-25.6 12.8-42.666667 8.533333-55.466667-25.6-102.4-51.2-140.8-85.333333-12.8-8.533333-17.066667-25.6-12.8-42.666667 8.533333-38.4 4.266667-76.8-12.8-106.666666-17.066667-34.133333-46.933333-55.466667-89.6-64h-4.266666c-8.533333-8.533333-21.333333-21.333333-25.6-34.133334-4.266667-29.866667-8.533333-55.466667-8.533334-85.333333 0-25.6 4.266667-55.466667 8.533334-81.066667 0-17.066667 12.8-29.866667 29.866666-34.133333 38.4-8.533333 68.266667-29.866667 89.6-64s25.6-72.533333 12.8-106.666667c-8.533333-12.8-4.266667-34.133333 8.533334-46.933333 38.4-38.4 89.6-64 145.066666-85.333333h12.8c12.8 0 21.333333 4.266667 29.866667 12.8 25.6 29.866667 59.733333 42.666667 98.133333 42.666666 34.133333 0 72.533333-17.066667 102.4-46.933333 8.533333-8.533333 17.066667-12.8 29.866667-12.8 4.266667 0 8.533333 0 12.8 4.266667 55.466667 21.333333 102.4 51.2 140.8 81.066666 12.8 8.533333 21.333333 25.6 12.8 42.666667-12.8 38.4-8.533333 76.8 12.8 110.933333 17.066667 29.866667 46.933333 55.466667 89.6 64h4.266667c12.8 4.266667 21.333333 17.066667 25.6 34.133334 4.266667 29.866667 8.533333 55.466667 8.533333 85.333333 4.266667 25.6 0 55.466667-4.266667 81.066667z m-42.666666-153.6c0-4.266667 0-4.266667 0 0-51.2-17.066667-93.866667-46.933333-115.2-85.333334-25.6-42.666667-29.866667-89.6-17.066667-140.8-34.133333-29.866667-76.8-55.466667-128-72.533333-38.4 38.4-85.333333 55.466667-132.266667 55.466667-51.2 0-102.4-21.333333-132.266666-55.466667h4.266666c-46.933333 17.066667-89.6 42.666667-123.733333 72.533333 17.066667 46.933333 8.533333 98.133333-17.066667 140.8-25.6 42.666667-64 72.533333-115.2 85.333334-4.266667 21.333333-8.533333 51.2-8.533333 76.8 0 25.6 4.266667 46.933333 8.533333 72.533333 0 4.266667 0 4.266667 4.266667 4.266667 51.2 12.8 89.6 42.666667 110.933333 85.333333 25.6 42.666667 29.866667 89.6 17.066667 140.8 34.133333 29.866667 76.8 55.466667 128 72.533333 38.4-38.4 85.333333-55.466667 132.266667-55.466666 51.2 0 98.133333 21.333333 132.266666 55.466666 46.933333-17.066667 89.6-42.666667 128-72.533333-17.066667-46.933333-8.533333-98.133333 17.066667-140.8 25.6-46.933333 64-72.533333 115.2-85.333333 4.266667-21.333333 8.533333-51.2 8.533333-76.8-8.533333-29.866667-12.8-51.2-17.066666-76.8z"  horiz-adv-x="1024" />

    
    <glyph glyph-name="lingsheng" unicode="&#58890;" d="M938.666667 89.6h-68.266667V469.333333c0 183.466667-145.066667 332.8-324.266667 341.333334V857.6h-72.533333v-51.2c-179.2-8.533333-324.266667-157.866667-324.266667-341.333333V85.333333H85.333333v-42.666666h281.6v-17.066667c0-68.266667 64-119.466667 145.066667-119.466667s145.066667 55.466667 145.066667 119.466667V42.666667H938.666667v46.933333zM196.266667 465.066667c0 166.4 132.266667 298.666667 294.4 298.666666h38.4c162.133333 0 294.4-132.266667 294.4-298.666666v-371.2H196.266667v371.2z m439.466666-435.2c0-55.466667-55.466667-98.133333-123.733333-98.133334s-123.733333 42.666667-123.733333 98.133334v17.066666h238.933333c4.266667-8.533333 8.533333-12.8 8.533333-17.066666z"  horiz-adv-x="1024" />

    
    <glyph glyph-name="shoucang1" unicode="&#58891;" d="M507.733333 29.866667c-8.533333-8.533333-21.333333-8.533333-29.866666 0-4.266667 0-217.6 170.666667-302.933334 307.2-29.866667 42.666667-64 98.133333-64 174.933333 0 128 93.866667 230.4 204.8 230.4 59.733333 0 119.466667-29.866667 157.866667-85.333333l17.066667-25.6 17.066666 25.6c38.4 55.466667 98.133333 85.333333 157.866667 85.333333 85.333333 0 157.866667-55.466667 192-145.066667l38.4 17.066667c-38.4 106.666667-128 174.933333-230.4 174.933333-68.266667 0-128-29.866667-174.933333-81.066666-46.933333 51.2-110.933333 81.066667-174.933334 81.066666-136.533333 0-247.466667-123.733333-247.466666-277.333333 0-89.6 38.4-153.6 68.266666-200.533333 89.6-140.8 311.466667-315.733333 311.466667-320 12.8-8.533333 25.6-17.066667 42.666667-17.066667s29.866667 4.266667 42.666666 12.8c0 0 157.866667 123.733333 260.266667 243.2l-34.133333 25.6c-102.4-106.666667-251.733333-226.133333-251.733334-226.133333zM644.266667 388.266667h311.466666v-21.333334h-311.466666zM644.266667 520.533333h311.466666v-21.333333h-311.466666z"  horiz-adv-x="1024" />

    
    <glyph glyph-name="beizhixignren" unicode="&#58894;" d="M1024 404.48h-40.96C972.8 648.192 776.192 842.752 532.48 855.04V896h-40.96v-40.96C247.808 842.752 51.2 648.192 40.96 404.48H0v-40.96h40.96c10.24-243.712 206.848-438.272 450.56-450.56v-40.96h40.96v40.96c243.712 10.24 440.32 206.848 450.56 450.56h40.96v40.96zM532.48-7.168000000000006V35.84000000000003h-40.96v-43.008C290.816 3.0720000000000027 131.072 162.81600000000003 120.832 363.52H163.84v40.96H120.832C131.072 605.184 290.816 764.928 491.52 775.168V732.16h40.96V775.168c200.704-10.24 360.448-172.032 372.736-370.688H860.16v-40.96h45.056c-10.24-200.704-172.032-360.448-372.736-370.688zM512 363.52c67.584 0 122.88 55.296 122.88 122.88s-55.296 122.88-122.88 122.88-122.88-55.296-122.88-122.88 55.296-122.88 122.88-122.88z m0 208.896c47.104 0 86.016-38.912 86.016-86.016 0-47.104-38.912-86.016-86.016-86.016-47.104 0-86.016 38.912-86.016 86.016 0 47.104 38.912 86.016 86.016 86.016zM606.208 343.03999999999996h-186.368c-45.056 0-131.072-43.008-131.072-90.112v-79.872h36.864v79.872c0 14.336 57.344 53.248 94.208 53.248h186.368c36.864 0 94.208-36.864 94.208-53.248V173.05600000000004H737.28v79.872c0 47.104-86.016 90.112-131.072 90.112z"  horiz-adv-x="1024" />

    
    <glyph glyph-name="huojiangrognyu" unicode="&#58895;" d="M823.296 701.44v143.36H200.704v-143.36H61.44v-223.232c0-79.872 61.44-143.36 141.312-157.696 18.432-118.784 120.832-208.896 245.76-208.896h20.48v-126.976h-184.32c-26.624 0-47.104-2.048-47.104-28.672v-4.096c0-26.624 22.528-28.672 47.104-28.672h462.848c26.624 0 47.104 2.048 47.104 28.672v4.096c0 26.624-22.528 28.672-47.104 28.672H552.96v126.976h20.48c124.928 0 229.376 90.112 245.76 208.896 81.92 14.336 143.36 75.776 143.36 157.696V701.44h-139.264zM200.704 359.424c-55.296 14.336-94.208 61.44-94.208 118.784v186.368h94.208v-305.152z m544.768-2.048c0-92.16-77.824-167.936-172.032-167.936h-122.88c-94.208 0-172.032 75.776-172.032 167.936v409.6h466.944v-409.6z m172.032 120.832c0-57.344-38.912-104.448-94.208-118.784V664.576h94.208v-186.368z"  horiz-adv-x="1024" />

    
    <glyph glyph-name="fayuangogonggao" unicode="&#58896;" d="M389.12 189.44000000000005h245.76v-40.96H389.12zM317.44 504.832l108.544-98.304-30.72-126.976 118.784 73.728 120.832-73.728-32.768 126.976 106.496 100.352-135.168 12.288-61.44 126.976-57.344-126.976-137.216-14.336z m159.744-20.48l8.192 18.432 24.576 55.296 26.624-55.296 8.192-18.432 20.48-2.048 53.248-4.096-47.104-45.056-16.384-14.336 6.144-20.48 10.24-38.912L532.48 384l-20.48 12.288-18.432-12.288-43.008-26.624 10.24 38.912 6.144 20.48-16.384 16.384-47.104 43.008 53.248 6.144 20.48 2.048zM512 875.52S344.064 715.7760000000001 92.16 715.7760000000001v-479.232S258.048-105.47199999999998 512-105.47199999999998h2.048c253.952 0 417.792 342.016 417.792 342.016V715.7760000000001S585.728 742.4 512 875.52z m342.016-620.544c-32.768-59.392-167.936-284.672-339.968-284.672H512c-157.696 0-292.864 192.512-342.016 284.672v389.12c90.112 10.24 180.224 38.912 264.192 83.968 24.576 12.288 47.104 26.624 69.632 43.008 96.256-77.824 253.952-110.592 352.256-122.88v-393.216z"  horiz-adv-x="1024" />

    
    <glyph glyph-name="anquanyuan" unicode="&#58897;" d="M905.216 467.968C880.64 615.424 790.528 748.544 673.792 805.888c-14.336 34.816-47.104 59.392-83.968 59.392h-155.648c-38.912 0-71.68-24.576-86.016-61.44-112.64-57.344-200.704-190.464-225.28-335.872-34.816-6.144-61.44-38.912-61.44-79.872v-59.392c0-26.624 12.288-53.248 34.816-67.584 28.672-18.432 59.392-34.816 92.16-47.104 8.192-182.272 151.552-313.344 323.584-313.344s319.488 129.024 327.68 313.344c30.72 12.288 61.44 26.624 88.064 45.056 22.528 14.336 34.816 40.96 34.816 67.584v61.44c0 38.912-24.576 71.68-57.344 79.872zM751.616 158.72000000000003c0-2.048-2.048-4.096-2.048-6.144 0-2.048-2.048-4.096-2.048-6.144-2.048-4.096-2.048-6.144-4.096-10.24-14.336-34.816-36.864-67.584-63.488-92.16l-2.048-2.048c-4.096-4.096-8.192-8.192-14.336-12.288l-2.048-2.048c-18.432-14.336-40.96-26.624-63.488-34.816-2.048 0-4.096-2.048-6.144-2.048-4.096-2.048-10.24-2.048-14.336-4.096-2.048 0-4.096-2.048-8.192-2.048-4.096-2.048-10.24-2.048-14.336-2.048-2.048 0-6.144 0-8.192-2.048-4.096 0-8.192-2.048-12.288-2.048H512c-77.824 0-145.408 32.768-188.416 88.064l-2.048 2.048c-4.096 4.096-6.144 8.192-8.192 12.288-22.528 30.72-38.912 69.632-43.008 108.544 86.016-20.48 174.08-26.624 245.76-26.624s159.744 6.144 243.712 26.624c-4.096-10.24-6.144-20.48-8.192-30.72z m133.12 169.984v-4.096C804.864 271.36 673.792 240.64 514.048 240.64c-112.64 0-270.336 14.336-372.736 86.016v63.488 2.048l51.2 10.24 8.192 53.248c18.432 114.688 86.016 221.184 167.936 270.336v-200.704h40.96V746.496l10.24 28.672c2.048 6.144 8.192 12.288 12.288 12.288h155.648c4.096 0 10.24-4.096 12.288-12.288l12.288-28.672h2.048v-223.232h40.96V726.016c83.968-49.152 153.6-155.648 172.032-272.384l8.192-51.2 47.104-12.288v-61.44z"  horiz-adv-x="1024" />

    
    <glyph glyph-name="anxuzheng" unicode="&#58898;" d="M360.448 402.432L327.68 367.616l133.12-137.216L696.32 472.064 663.552 506.88l-202.752-208.896zM512 875.52S344.064 715.7760000000001 92.16 715.7760000000001v-479.232S258.048-105.47199999999998 512-105.47199999999998h2.048c253.952 0 417.792 342.016 417.792 342.016V715.7760000000001S585.728 742.4 512 875.52z m342.016-620.544c-49.152-92.16-182.272-284.672-339.968-284.672H512c-157.696 0-292.864 192.512-342.016 284.672v389.12c90.112 10.24 180.224 38.912 264.192 83.968 0 0 34.816 18.432 69.632 43.008 96.256-77.824 253.952-110.592 352.256-124.928v-391.168z"  horiz-adv-x="1024" />

    
    <glyph glyph-name="caipanwenshu" unicode="&#58899;" d="M641.024 199.67999999999995l28.672-28.672 141.312 139.264-28.672 26.624zM462.848 609.28l-28.672 28.672-141.312-137.216 28.672-28.672zM718.848 422.912L569.344 568.3199999999999c-12.288 10.24-26.624 16.384-40.96 16.384s-30.72-6.144-40.96-16.384l-102.4-100.352c-22.528-22.528-22.528-59.392 0-81.92l59.392-59.392-206.848-202.752L266.24 97.27999999999997l206.848 202.752L532.48 240.64c12.288-10.24 26.624-16.384 40.96-16.384s30.72 6.144 40.96 16.384l102.4 100.352c24.576 22.528 24.576 59.392 2.048 81.92zM573.44 310.27200000000005l-120.832 116.736 73.728 73.728 120.832-116.736-73.728-73.728zM878.592 865.28H145.408C94.208 865.28 40.96 818.176 40.96 771.072v-774.144c0-47.104 53.248-94.208 104.448-94.208h733.184c53.248 0 104.448 47.104 104.448 94.208V771.072c0 47.104-53.248 94.208-104.448 94.208z m26.624-866.304c-2.048-6.144-16.384-18.432-26.624-18.432H145.408c-10.24 0-24.576 12.288-26.624 18.432V769.024c2.048 6.144 16.384 18.432 26.624 18.432h733.184c10.24 0 24.576-12.288 26.624-18.432v-770.048z"  horiz-adv-x="1024" />

    
    <glyph glyph-name="jiaozaoshi" unicode="&#58900;" d="M516.096-13.312000000000012L614.4 179.20000000000005l-98.304 120.832-98.304-120.832 98.304-192.512z m55.296 188.416l-55.296-108.544-55.296 108.544 55.296 67.584 55.296-67.584zM471.04 363.52h102.4c86.016 0 161.792 86.016 161.792 172.032V703.488C735.232 789.504 659.456 875.52 573.44 875.52h-102.4c-86.016 0-165.888-86.016-165.888-172.032v-169.984c-2.048-83.968 79.872-169.984 165.888-169.984zM380.928 703.488c0 43.008 47.104 94.208 88.064 94.208h102.4c40.96 0 83.968-49.152 83.968-94.208v-169.984c0-45.056-43.008-94.208-83.968-94.208h-102.4c-40.96 0-88.064 49.152-88.064 94.208V703.488zM698.368 320.51199999999994h-90.112v-77.824h90.112c30.72 0 86.016-14.336 141.312-45.056 51.2-30.72 69.632-57.344 69.632-63.488v-131.072c-53.248-16.384-190.464-32.768-393.216-32.768-202.752 0-339.968 16.384-393.216 32.768v131.072c0 6.144 16.384 34.816 69.632 63.488 55.296 30.72 110.592 45.056 141.312 45.056h90.112v77.824h-90.112c-100.352 0-288.768-90.112-288.768-188.416v-167.936c0-49.152 235.52-73.728 471.04-73.728s471.04 24.576 471.04 73.728v167.936c-2.048 100.352-188.416 188.416-288.768 188.416z"  horiz-adv-x="1024" />

    
    <glyph glyph-name="zhongbiaoxinxi" unicode="&#58901;" d="M512 312.32000000000005c38.912 0 71.68 32.768 71.68 71.68s-32.768 71.68-71.68 71.68-71.68-32.768-71.68-71.68 32.768-71.68 71.68-71.68z m0 106.496c18.432 0 34.816-16.384 34.816-34.816s-16.384-34.816-34.816-34.816-34.816 16.384-34.816 34.816 16.384 34.816 34.816 34.816zM548.864 650.24v-77.824c88.064-18.432 153.6-94.208 153.6-188.416 0-106.496-86.016-190.464-190.464-190.464-92.16 0-169.984 65.536-188.416 153.6H245.76c18.432-129.024 129.024-229.376 264.192-229.376C657.408 117.75999999999999 778.24 238.59199999999998 778.24 386.048c0 135.168-100.352 245.76-229.376 264.192zM512 875.52C239.616 875.52 20.48 656.384 20.48 384s219.136-491.52 491.52-491.52 491.52 219.136 491.52 491.52S784.384 875.52 512 875.52z m0-905.216C284.672-29.696000000000026 98.304 156.67200000000003 98.304 384S284.672 797.696 512 797.696 925.696 611.328 925.696 384 739.328-29.696000000000026 512-29.696000000000026z"  horiz-adv-x="1024" />

    
    <glyph glyph-name="shiguqingkuang" unicode="&#58902;" d="M460.8 123.904c0-22.528 18.432-40.96 40.96-40.96s40.96 18.432 40.96 40.96-18.432 40.96-40.96 40.96-40.96-18.432-40.96-40.96zM481.28 467.968h40.96v-241.664h-40.96zM548.864 803.84c-8.192 14.336-22.528 20.48-36.864 20.48s-28.672-6.144-36.864-20.48L6.144 7.168000000000006c-16.384-28.672 4.096-63.488 36.864-63.488h935.936c32.768 0 55.296 34.816 36.864 63.488L548.864 803.84zM104.448 21.50400000000002L512 713.7280000000001l407.552-692.224H104.448z"  horiz-adv-x="1024" />

    
    <glyph glyph-name="shixinxixing" unicode="&#58903;" d="M675.84 574.4639999999999l-10.24 10.24c-36.864 43.008-92.16 69.632-153.6 69.632-112.64 0-204.8-92.16-204.8-204.8s92.16-204.8 204.8-204.8 204.8 92.16 204.8 204.8c0 47.104-16.384 90.112-40.96 124.928z m-331.776-124.928c0 92.16 75.776 167.936 167.936 167.936 40.96 0 79.872-16.384 108.544-40.96L385.024 340.99199999999996c-26.624 28.672-40.96 67.584-40.96 108.544z m335.872 0c0-92.16-75.776-167.936-167.936-167.936-36.864 0-69.632 12.288-98.304 30.72L649.216 547.8399999999999c18.432-28.672 30.72-61.44 30.72-98.304zM878.592 855.04H139.264C100.352 855.04 61.44 822.272 61.44 777.216v-792.576C61.44-66.55999999999995 106.496-87.03999999999996 133.12-87.03999999999996c26.624 0 38.912 0 71.68 26.624l77.824 71.68 63.488-71.68c18.432-12.288 32.768-26.624 51.2-26.624 18.432 0 38.912 6.144 51.2 26.624l63.488 71.68 71.68-77.824c12.288-12.288 32.768-18.432 53.248-18.432s40.96 6.144 57.344 18.432l57.344 77.824 71.68-71.68c20.48-16.384 51.2-26.624 75.776-26.624 6.144 0 10.24 0 14.336 2.048 26.624 6.144 51.2 32.768 51.2 63.488V783.36C958.464 822.272 917.504 855.04 878.592 855.04z m6.144-862.208c-4.096 2.048-8.192 4.096-14.336 6.144l-65.536 65.536-63.488 63.488-53.248-71.68-49.152-65.536H634.88l-65.536 71.68-57.344 63.488-57.344-63.488-57.344-63.488-57.344 63.488-53.248 57.344-57.344-53.248-75.776-69.632c-6.144-2.048-10.24-4.096-10.24-4.096h-4.096V777.216h739.328c2.048 0 4.096-2.048 6.144-4.096v-780.288z"  horiz-adv-x="1024" />

    
    <glyph glyph-name="zizhizhengshu" unicode="&#58904;" d="M993.28 95.23199999999997L862.208 261.12c34.816 59.392 55.296 131.072 55.296 204.8 0 225.28-184.32 409.6-409.6 409.6s-409.6-184.32-409.6-409.6c0-77.824 22.528-149.504 59.392-212.992l-124.928-157.696c-12.288-18.432-10.24-43.008 6.144-59.392H163.84l28.672-135.168c8.192-6.144 16.384-10.24 26.624-10.24 12.288 0 22.528 4.096 30.72 14.336l133.12 167.936c38.912-12.288 81.92-20.48 126.976-20.48 47.104 0 92.16 8.192 133.12 22.528l135.168-172.032c8.192-10.24 18.432-14.336 30.72-14.336 8.192 0 18.432 4.096 26.624 10.24l28.672 135.168h124.928c16.384 18.432 18.432 43.008 4.096 61.44zM225.28-66.55999999999995l-24.576 110.592-6.144 28.672H63.488L180.224 220.15999999999997c43.008-57.344 100.352-102.4 165.888-131.072L225.28-66.55999999999995zM176.128 465.92c0 182.272 149.504 331.776 331.776 331.776S839.68 648.192 839.68 465.92s-149.504-331.776-331.776-331.776S176.128 283.648 176.128 465.92z m688.128-393.216h-30.72l-6.144-28.672-24.576-110.592-124.928 159.744c65.536 30.72 120.832 75.776 163.84 135.168l120.832-155.648h-98.304zM507.904 609.28c-79.872 0-143.36-63.488-143.36-143.36s63.488-143.36 143.36-143.36 143.36 63.488 143.36 143.36-63.488 143.36-143.36 143.36z m0-212.992c-38.912 0-69.632 30.72-69.632 69.632s30.72 69.632 69.632 69.632 69.632-30.72 69.632-69.632-30.72-69.632-69.632-69.632z"  horiz-adv-x="1024" />

    
    <glyph glyph-name="xiangmujingli" unicode="&#58905;" d="M942.08 236.54399999999998c0 26.624-2.048 53.248-2.048 81.92 0 182.272-104.448 335.872-274.432 385.024 0 0-6.144 2.048-16.384 4.096-12.288 34.816-36.864 57.344-88.064 57.344h-96.256c-53.248 0-79.872-26.624-90.112-63.488-165.888-53.248-266.24-202.752-266.24-380.928 0-26.624-2.048-53.248-2.048-77.824H102.4c-45.056 0-79.872-34.816-79.872-77.824v-77.824c0-43.008 36.864-77.824 79.872-77.824 0 0 200.704 38.912 403.456 38.912 208.896 0 417.792-38.912 417.792-38.912 45.056 0 79.872 34.816 79.872 77.824v77.824c0 32.768-26.624 63.488-61.44 71.68z m-16.384-153.6c-49.152 8.192-233.472 38.912-419.84 38.912-182.272 0-358.4-28.672-407.552-38.912V158.72000000000003h14.336l69.632 6.144v69.632 34.816c2.048 18.432 2.048 32.768 2.048 49.152 0 137.216 71.68 247.808 182.272 296.96v-139.264h36.864v178.176c0 61.44 22.528 71.68 59.392 71.68h96.256c36.864 0 59.392-12.288 59.392-71.68V476.16H655.36v149.504c126.976-43.008 204.8-157.696 204.8-305.152 0-16.384 0-30.72 2.048-47.104 0-12.288 2.048-24.576 2.048-34.816v-61.44l59.392-14.336h2.048v-79.872z"  horiz-adv-x="1024" />

    
    <glyph glyph-name="xingzhengchufa" unicode="&#58906;" d="M894.976 76.79999999999995C962.56 160.76800000000003 1003.52 267.264 1003.52 384 1003.52 656.384 782.336 875.52 512 875.52S20.48 656.384 20.48 384s219.136-491.52 491.52-491.52c114.688 0 219.136 38.912 301.056 104.448l102.4-92.16c18.432-16.384 47.104-14.336 63.488 6.144l14.336 18.432c16.384 20.48 14.336 49.152-6.144 65.536l-92.16 81.92zM98.304 384C98.304 611.328 284.672 797.696 512 797.696S925.696 611.328 925.696 384c0-108.544-43.008-208.896-112.64-282.624l-6.144-6.144-4.096-4.096c-75.776-73.728-178.176-120.832-290.816-120.832-227.328 0-413.696 186.368-413.696 413.696zM452.608 394.24C425.984 424.96 405.504 445.44 389.12 461.824l-24.576-22.528c24.576-24.576 43.008-47.104 59.392-69.632l28.672 24.576zM399.36 224.25599999999997v141.312h-104.448v-34.816h67.584v-100.352c0-16.384-6.144-28.672-18.432-36.864l26.624-30.72c36.864 26.624 77.824 53.248 122.88 81.92-4.096 10.24-8.192 22.528-10.24 38.912-24.576-18.432-53.248-38.912-83.968-59.392zM323.584 607.232v-143.36h36.864v12.288h333.824v-12.288h36.864v143.36H323.584z m122.88-100.352h-88.064v65.536h88.064V506.88z m122.88 0h-88.064v65.536h88.064V506.88z m124.928 0h-88.064v65.536h88.064V506.88zM536.576 429.056H573.44v-194.56h-36.864zM681.984 230.39999999999998c0-20.48-10.24-30.72-30.72-30.72s-40.96 2.048-63.488 6.144c4.096-14.336 6.144-26.624 8.192-38.912 18.432-2.048 38.912-2.048 59.392-2.048 40.96 0 63.488 18.432 63.488 57.344V445.44h-36.864v-215.04z"  horiz-adv-x="1024" />

    
    <glyph glyph-name="qiyexiangqingyezhagehua-" unicode="&#58907;" d="M710.656 275.456l-51.2 104.448-49.152-104.448-114.688-12.288 90.112-79.872-26.624-104.448 100.352 61.44 102.4-59.392-28.672 102.4 90.112 81.92-112.64 10.24z m0-98.304l12.288-45.056-49.152 28.672-12.288 8.192-12.288-8.192-49.152-30.72 12.288 45.056 4.096 14.336-10.24 10.24-49.152 43.008 57.344 6.144 14.336 2.048 6.144 12.288 26.624 57.344 28.672-57.344 6.144-12.288 14.336-2.048 57.344-4.096-49.152-45.056-10.24-10.24 2.048-12.288zM231.424 322.55999999999995h163.84v-40.96h-163.84zM231.424 461.824h327.68v-40.96h-327.68zM231.424 621.568h491.52v-40.96h-491.52zM870.4 842.752H167.936C118.784 842.752 67.584 797.696 67.584 752.64v-741.376c0-45.056 49.152-90.112 100.352-90.112h700.416c49.152 0 100.352 45.056 100.352 90.112V750.592c0 45.056-49.152 92.16-98.304 92.16z m20.48-829.44c-2.048-6.144-14.336-14.336-22.528-14.336H167.936c-8.192 0-18.432 8.192-22.528 14.336V748.544c2.048 6.144 14.336 14.336 22.528 14.336h700.416c8.192 0 18.432-8.192 22.528-14.336v-735.232z"  horiz-adv-x="1024" />

    
    <glyph glyph-name="user2" unicode="&#58955;" d="M486.4 332.8C331.1104 332.8 204.8 459.1104 204.8 614.4S331.1104 896 486.4 896 768 769.6896 768 614.4 641.6896 332.8 486.4 332.8z m0 512C359.3728 844.8 256 741.4272 256 614.4S359.3728 384 486.4 384 716.8 487.3728 716.8 614.4 613.4272 844.8 486.4 844.8zM896-128h-819.2C34.4576-128 0-93.5424 0-51.2c0 3.4816 0.7168 86.272 62.72 168.96 36.096 48.128 85.504 86.3744 146.8928 113.6128C284.5696 264.704 377.7024 281.6 486.4 281.6s201.8304-16.896 276.7872-50.2272c61.3888-27.2896 110.7968-65.4848 146.8928-113.6128C972.0832 35.072 972.8-47.7184 972.8-51.2c0-42.3424-34.4576-76.8-76.8-76.8z m-409.6 358.4c-178.5344 0-310.272-48.7936-380.9792-141.1072C52.4288 20.1216 51.2512-50.5856 51.2-51.3024a25.6 25.6 0 0 1 25.6-25.4976h819.2a25.6 25.6 0 0 1 25.6 25.6c0 0.6144-1.1776 71.3216-54.2208 140.4928C796.6208 181.6064 664.8832 230.4 486.4 230.4z"  horiz-adv-x="1024" />

    
    <glyph glyph-name="huabanfuben" unicode="&#58908;" d="M340.5824 195.37919999999997h327.68v-40.96h-327.68zM509.952 556.4416l20.48-55.5008 5.9392-16.1792h90.9312l-62.8736-53.0432-12.6976-10.6496 5.12-15.7696 20.48-61.44-52.4288 37.888-14.336 10.4448-14.336-10.4448-52.4288-37.888 20.48 61.44 5.12 15.7696-12.6976 10.6496-62.8736 53.0432h90.9312l5.9392 16.1792 20.48 55.5008m0 71.68l-43.2128-118.784h-142.1312l114.2784-96.6656-43.8272-133.12 113.8688 81.92 113.8688-81.92-43.8272 133.12 114.2784 96.6656H552.96l-43.2128 118.784zM888.2176 716.8a47.7184 47.7184 0 0 0 31.3344-14.5408v-696.32a47.7184 47.7184 0 0 0-31.3344-14.5408H122.88a47.7184 47.7184 0 0 0-31.3344 14.5408v696.32A47.7184 47.7184 0 0 0 122.88 716.8h765.3376m0 77.824H122.88C69.2224 794.624 14.5408 751.4112 14.5408 708.1984v-707.584c0-43.2128 54.6816-86.6304 109.1584-86.6304h764.5184c54.6816 0 109.1584 43.2128 109.1584 86.6304V708.1984c0 43.2128-54.6816 86.6304-109.1584 86.6304z"  horiz-adv-x="1024" />

    
    <glyph glyph-name="moon1" unicode="&#59171;" d="M524.490551-127.43355c-140.102939 0-271.81403 54.547017-370.878782 153.611769S0 256.954061 0 397.057c0 115.183242 36.995772 223.867918 106.944903 314.336142a523.825343 523.825343 0 0 0 119.276826 112.266563A533.035909 533.035909 0 0 0 376.55863 894.88808a25.584905 25.584905 0 0 0 30.036679-36.228225c-33.004527-64.320451-48.35547-125.621883-48.355471-193.012523 0-239.832899 195.110485-434.943383 434.943384-434.943383 67.39064 0 128.692072 15.350943 193.012523 48.35547a25.584905 25.584905 0 0 0 36.228225-30.036678 534.468663 534.468663 0 0 0-71.228375-150.336902 523.825343 523.825343 0 0 0-112.266563-119.276826 509.395457 509.395457 0 0 0-314.336142-106.944903zM336.18565 826.115856C163.538712 752.17548 51.16981 586.180617 51.16981 397.057 51.16981 136.09097 263.524521-76.26374 524.490551-76.26374c189.123617 0 355.11848 112.420072 429.058855 285.01584A451.98293 451.98293 0 0 0 793.132052 179.585309c-129.868977 0-251.908974 50.555772-343.707612 142.354411S307.018859 535.829525 307.018859 665.698502c0 55.109885 9.619924 108.019469 29.166791 160.417354z"  horiz-adv-x="1024" />

    
    <glyph glyph-name="star1" unicode="&#59184;" d="M793.6-76.8a25.4464 25.4464 0 0 0-12.2368 3.1232L512 73.216l-269.3632-146.8928a25.5488 25.5488 0 0 0-37.4784 26.7264l49.0496 294.1952-195.4816 195.4816a25.6512 25.6512 0 0 0 13.8752 43.3664l294.3488 49.0496 122.1632 244.3264a25.6 25.6 0 0 0 45.7728 0l122.1632-244.3264 294.3488-49.0496a25.6 25.6 0 0 0 13.8752-43.3664l-195.4816-195.4816 49.0496-294.1952A25.7536 25.7536 0 0 0 793.6-76.8zM512 128c4.1984 0 8.448-1.024 12.2368-3.1232l235.4688-128.4096-42.5472 255.3344a25.4464 25.4464 0 0 0 7.168 22.3232l169.6256 169.6256-258.1504 43.008a25.6 25.6 0 0 0-18.688 13.824L512 710.8096 406.8864 500.5824a25.7536 25.7536 0 0 0-18.688-13.824l-258.1504-43.008 169.6256-169.6256a25.7024 25.7024 0 0 0 7.168-22.3232l-42.5472-255.3344 235.4688 128.4096A25.4464 25.4464 0 0 0 512 128z"  horiz-adv-x="1024" />

    
    <glyph glyph-name="shoucang-" unicode="&#58909;" d="M243.2 435.2H512v-38.4H243.2v38.4zM243.2 584.5333330000001h392.533333v-38.4H243.2v38.4zM691.2 362.66666699999996l81.066667-76.8-162.133334-157.866667-106.666666-17.066667 25.6 93.866667 162.133333 157.866667m0 29.866666L507.733333 213.33333300000004l-34.133333-128 145.066667 21.333334 183.466666 179.2-110.933333 106.666666zM832 729.6c17.066667 0 29.866667-12.8 29.866667-25.6v-648.533333c0-12.8-12.8-25.6-29.866667-25.6h-640c-17.066667 0-29.866667 12.8-29.866667 25.6V704c0 12.8 12.8 25.6 29.866667 25.6h640m0 42.666667h-640c-38.4 0-72.533333-29.866667-72.533333-68.266667v-648.533333c0-38.4 29.866667-68.266667 72.533333-68.266667h640c38.4 0 72.533333 29.866667 72.533333 68.266667V704c0 38.4-34.133333 68.266667-72.533333 68.266667z"  horiz-adv-x="1024" />

    
    <glyph glyph-name="shoucang-1" unicode="&#58910;" d="M332.8 388.266667h337.066667v-21.333334H332.8v21.333334zM332.8 512h337.066667v-21.333333H332.8V512zM827.733333-21.33333300000004c-25.6 0-55.466667 12.8-72.533333 25.6l-42.666667 42.666666-34.133333-42.666666-4.266667-4.266667c-34.133333-29.866667-89.6-25.6-119.466666 0l-42.666667 46.933333-38.4-42.666666c-12.8-17.066667-34.133333-29.866667-59.733333-29.866667-21.333333 0-34.133333 8.533333-46.933334 17.066667l-8.533333 4.266666s-4.266667 0-4.266667 4.266667l-38.4 42.666667-46.933333-42.666667c-29.866667-25.6-46.933333-25.6-72.533333-25.6-34.133333 0-81.066667 25.6-81.066667 81.066667V708.266667c0 51.2 42.666667 85.333333 85.333333 85.333333H810.666667c42.666667 0 85.333333-34.133333 89.6-76.8v-661.333333c0-38.4-29.866667-68.266667-59.733334-72.533334 0-4.266667-8.533333-4.266667-12.8-4.266666z m-119.466666 123.733333c4.266667 0 12.8-4.266667 17.066666-4.266667l59.733334-59.733333c17.066667-12.8 38.4-17.066667 55.466666-17.066667 12.8 4.266667 25.6 17.066667 25.6 34.133334V712.533333c0 17.066667-25.6 38.4-46.933333 38.4H204.8c-21.333333 0-42.666667-17.066667-42.666667-42.666666v-648.533334c0-29.866667 29.866667-38.4 38.4-38.4 17.066667 0 25.6 0 42.666667 17.066667l64 55.466667c4.266667 4.266667 8.533333 4.266667 17.066667 4.266666 4.266667 0 12.8-4.266667 12.8-8.533333l59.733333-59.733333c8.533333-8.533333 17.066667-8.533333 21.333333-8.533334 17.066667 0 21.333333 8.533333 25.6 12.8l55.466667 59.733334c4.266667 4.266667 8.533333 8.533333 17.066667 8.533333 4.266667 0 12.8-4.266667 17.066666-8.533333l59.733334-64c12.8-12.8 42.666667-12.8 59.733333 0l46.933333 59.733333c-4.266667 8.533333 0 12.8 8.533334 12.8-4.266667 0 0 0 0 0z"  horiz-adv-x="1024" />

    
    <glyph glyph-name="shoucang-2" unicode="&#58911;" d="M512 149.33333300000004c-8.533333 0-12.8 4.266667-17.066667 8.533334h-4.266666c-42.666667 34.133333-153.6 119.466667-183.466667 196.266666-8.533333 17.066667-12.8 29.866667-12.8 46.933334v4.266666 4.266667c0 76.8 59.733333 136.533333 132.266667 136.533333 29.866667 0 64-12.8 85.333333-34.133333 25.6 21.333333 55.466667 34.133333 85.333333 34.133333 72.533333 0 132.266667-59.733333 132.266667-136.533333v-4.266667l-8.533333-4.266666h12.8c0-12.8-4.266667-25.6-8.533334-38.4 0-4.266667-4.266667-12.8-8.533333-17.066667l-4.266667-4.266667s-4.266667-4.266667-4.266666-8.533333c-42.666667-72.533333-136.533333-145.066667-174.933334-174.933333-8.533333-8.533333-12.8-8.533333-21.333333-8.533334z m-85.333333 371.2c-59.733333 0-110.933333-51.2-110.933334-115.2v-4.266666c0-12.8 4.266667-21.333333 8.533334-38.4 29.866667-72.533333 132.266667-157.866667 179.2-187.733334h4.266666c4.266667-4.266667 8.533333-4.266667 12.8 0 29.866667 21.333333 128 98.133333 170.666667 170.666667 0 4.266667 4.266667 4.266667 4.266667 4.266667l4.266666 4.266666c4.266667 4.266667 4.266667 8.533333 4.266667 12.8 4.266667 12.8 8.533333 21.333333 8.533333 29.866667v8.533333c0 64-46.933333 115.2-110.933333 115.2-29.866667 0-55.466667-12.8-76.8-34.133333l-12.8-8.533333-8.533333 8.533333c-21.333333 21.333333-46.933333 34.133333-76.8 34.133333zM512 789.333333c221.866667 0 405.333333-183.466667 405.333333-405.333333s-183.466667-405.333333-405.333333-405.333333-405.333333 179.2-405.333333 405.333333c0 221.866667 183.466667 405.333333 405.333333 405.333333m0 42.666667C264.533333 832 64 631.4666669999999 64 384S264.533333-64 512-64 960 136.53333299999997 960 384 759.466667 832 512 832z"  horiz-adv-x="1024" />

    
    <glyph glyph-name="wodezhengshu" unicode="&#58912;" d="M844.8-12.8H226.133333c-68.266667 0-115.2 17.066667-128 93.866667v597.333333c0 76.8 64 140.8 140.8 140.8h512c38.4 0 72.533333-34.133333 72.533334-72.533333v-597.333334c0-21.333333-17.066667-38.4-38.4-38.4H213.333333c-21.333333 0-38.4-12.8-38.4-29.866666-4.266667-21.333333 8.533333-38.4 34.133334-38.4h640c21.333333 0 38.4 34.133333 38.4 55.466666V631.466667c0 55.466667 59.733333 55.466667 59.733333 0v-541.866667c0-55.466667-46.933333-102.4-102.4-102.4zM149.333333 652.8V170.666667H721.066667c21.333333 0 38.4 17.066667 38.4 38.4V716.8c0 25.6-21.333333 46.933333-46.933334 46.933333H260.266667c-68.266667 0-110.933333-42.666667-110.933334-110.933333zM366.933333 290.133333c-4.266667 0-8.533333 0-12.8 4.266667-4.266667 4.266667-8.533333 12.8-8.533333 21.333333l17.066667 93.866667-68.266667 68.266667c-4.266667 4.266667-8.533333 12.8-4.266667 21.333333 0 8.533333 8.533333 12.8 17.066667 12.8l89.6 12.8 42.666667 85.333333c8.533333 12.8 29.866667 12.8 38.4 0l42.666666-85.333333 85.333334-12.8c8.533333 0 12.8-8.533333 17.066666-12.8 4.266667-8.533333 0-17.066667-4.266666-21.333333L554.666667 409.6l17.066666-93.866667c0-4.266667 0-12.8-4.266666-17.066666-4.266667-8.533333-17.066667-8.533333-25.6-4.266667L460.8 341.333333l-81.066667-46.933333c-8.533333-4.266667-12.8-4.266667-12.8-4.266667z m89.6 315.733334l-42.666666-98.133334-106.666667-17.066666L384 418.133333l-17.066667-106.666666 89.6 51.2 89.6-51.2-17.066666 106.666666 72.533333 76.8-102.4 17.066667-42.666667 93.866667z"  horiz-adv-x="1024" />

    
    <glyph glyph-name="user3" unicode="&#58917;" d="M512-128a510.421333 510.421333 0 0 0-371.584 160A511.850667 511.850667 0 1 0 512-128z m309.632 160a466.965333 466.965333 0 0 1-619.264 0 467.477333 467.477333 0 0 1 619.264 0zM746.666667 426.666667a234.666667 234.666667 0 1 1-234.666667-234.666667 234.666667 234.666667 0 0 1 234.666667 234.666667zM512 853.333333A468.864 468.864 0 0 1 171.370667 61.866667a510.528 510.528 0 0 0 219.52 115.690666 277.333333 277.333333 0 1 0 242.218666 0 510.528 510.528 0 0 0 219.52-115.690666A468.864 468.864 0 0 1 512 853.333333z"  horiz-adv-x="1024" />

    
    <glyph glyph-name="moon-fill" unicode="&#59446;" d="M485.546667 809.856a320 320 0 1 1 452.266666-452.266667C924.245333 134.229333 738.816-42.666667 512.042667-42.666667 276.352-42.666667 85.333333 148.352 85.333333 384c0 226.773333 176.896 412.202667 400.213334 425.856z"  horiz-adv-x="1024" />

    
    <glyph glyph-name="yunduan" unicode="&#58951;" d="M958.6 286.5c-2 84-59.4 161.2-144.4 192-46 126.4-165.9 211.5-300 213-132.5 1.4-253.2-79.2-303-202.5-87.4-32.2-146-112.6-147-199.5-1.2-104.1 80.7-199.5 193.9-216h512.1c111.4 17 190.8 111.4 188.4 213zM756.8 158.89999999999998v-0.2H263.2v0.4c-65.5 5.3-117 60.2-117 127 0 70.2 56.7 127.1 126.8 127.5 23.4 110.2 121.3 192.9 238.5 192.9S726.6 523.8 750 413.6c70.1-0.4 126.8-57.3 126.8-127.5-0.1-67.8-53.1-123.3-120-127.2z"  horiz-adv-x="1024" />

    
    <glyph glyph-name="chucunchenggong" unicode="&#58952;" d="M690.1 321.6c-19.4 13.4-46.3 8.5-59.7-10.9l-123.6-179-76 76c-16.6 16.6-43.8 16.6-60.4 0s-16.6-43.8 0-60.4l112.1-112.1c8.3-8.3 19.3-12.5 30.3-12.5 13.8-0.1 27.4 6.3 35.8 18.5L701 261.9c13.4 19.4 8.5 46.3-10.9 59.7zM957.6 341.5c-2 84-59.4 161.2-144.4 192-46 126.4-165.9 211.5-300 213-132.5 1.4-253.2-79.2-303-202.5-87.4-32.2-146-112.6-147-199.5-1.2-104.1 80.7-199.5 193.9-216h12.8v0.1h0.5c23.5 0 42.5 19 42.5 42.5s-19 42.5-42.5 42.5h-8.3v0.4c-65.5 5.3-117 60.2-117 127 0 70.2 56.7 127.1 126.8 127.5 23.4 110.2 121.3 192.9 238.5 192.9s215.1-82.7 238.5-192.9c70.1-0.4 126.8-57.3 126.8-127.5 0-67.9-53-123.3-119.9-127.2v-0.2h-6.6c-23.5 0-42.5-19-42.5-42.5s19-42.5 42.5-42.5h0.8v-0.1h19.3c111.3 17 190.7 111.4 188.3 213z"  horiz-adv-x="1024" />

    
    <glyph glyph-name="chucunshibai" unicode="&#58953;" d="M959.6 341.5c-2 84-59.4 161.2-144.4 192-46 126.4-165.9 211.5-300 213-132.5 1.4-253.2-79.2-303-202.5-87.4-32.2-146-112.6-147-199.5-1.2-104.1 80.7-199.5 193.9-216h12.8v0.1h0.5c23.5 0 42.5 19 42.5 42.5s-19 42.5-42.5 42.5h-8.3v0.4c-65.5 5.3-117 60.2-117 127 0 70.2 56.7 127.1 126.8 127.5 23.4 110.2 121.3 192.9 238.5 192.9s215.1-82.7 238.5-192.9c70.1-0.4 126.8-57.3 126.8-127.5 0-67.9-53-123.3-119.9-127.2v-0.2h-6.6c-23.5 0-42.5-19-42.5-42.5s19-42.5 42.5-42.5h0.8v-0.1h19.3c111.3 17 190.7 111.4 188.3 213zM656.1 313.1c-16.6 16.6-43.8 16.6-60.4 0l-82.9-82.9-82.9 82.9c-16.6 16.6-43.8 16.6-60.4 0s-16.6-43.8 0-60.4l82.9-82.9-82.9-82.9c-16.6-16.6-16.6-43.8 0-60.4s43.8-16.6 60.4 0l82.9 82.9 82.9-82.9c16.6-16.6 43.8-16.6 60.4 0s16.6 43.8 0 60.4l-82.9 82.9 82.9 82.9c16.6 16.6 16.6 43.8 0 60.4z"  horiz-adv-x="1024" />

    
    <glyph glyph-name="xiazai" unicode="&#58954;" d="M959.5 366.5c-2 84-59.4 161.2-144.4 192-46 126.4-165.9 211.5-300 213-132.5 1.4-253.2-79.2-303-202.5-87.4-32.2-146-112.6-147-199.5-1.2-104.1 80.7-199.5 193.9-216h12.8v0.1h0.5c23.5 0 42.5 19 42.5 42.5s-19 42.5-42.5 42.5H264v0.4c-65.5 5.3-117 60.2-117 127 0 70.2 56.7 127.1 126.8 127.5 23.4 110.2 121.3 192.9 238.5 192.9s215.1-82.7 238.5-192.9c70.1-0.4 126.8-57.3 126.8-127.5 0-67.9-53-123.3-119.9-127.2v-0.2h-6.6c-23.5 0-42.5-19-42.5-42.5s19-42.5 42.5-42.5h0.8v-0.1h19.3c111.2 17 190.7 111.4 188.3 213zM663.9 214.2c-17.6 15.6-44.7 13.9-60.3-3.7l-49.2-55.7V366.5c0 23.2-18.9 42.1-42.1 42.1-23.2 0-42.1-18.9-42.1-42.1v-211.6L421 210.5c-15.6 17.6-42.7 19.3-60.3 3.7-17.6-15.6-19.3-42.7-3.7-60.3l123.3-139.4c4.1-4.7 9-8.2 14.4-10.6 0.1 0 0.2-0.1 0.3-0.1l1.5-0.6c0.2-0.1 0.4-0.2 0.6-0.2 0.4-0.2 0.8-0.3 1.2-0.4 0.3-0.1 0.6-0.2 0.8-0.3 0.3-0.1 0.7-0.2 1-0.3 0.3-0.1 0.7-0.2 1-0.3 0.3-0.1 0.6-0.2 0.9-0.2 0.4-0.1 0.8-0.2 1.1-0.3 0.3-0.1 0.6-0.1 0.8-0.2 0.4-0.1 0.8-0.2 1.2-0.2 0.3 0 0.5-0.1 0.8-0.1 0.4-0.1 0.8-0.1 1.2-0.2 0.3 0 0.6-0.1 0.8-0.1 0.4 0 0.8-0.1 1.2-0.1 0.3 0 0.6 0 0.9-0.1h4.2c0.3 0 0.6 0 0.9 0.1 0.4 0 0.8 0.1 1.2 0.1 0.3 0 0.6 0.1 0.8 0.1 0.4 0 0.8 0.1 1.2 0.2 0.3 0 0.5 0.1 0.8 0.1 0.4 0.1 0.8 0.1 1.2 0.2 0.3 0.1 0.6 0.1 0.8 0.2 0.4 0.1 0.8 0.2 1.1 0.3 0.3 0.1 0.6 0.1 0.9 0.2 0.3 0.1 0.7 0.2 1 0.3 0.3 0.1 0.7 0.2 1 0.3 0.3 0.1 0.6 0.2 0.8 0.3 0.4 0.1 0.8 0.3 1.2 0.4 0.2 0.1 0.4 0.2 0.6 0.2l1.5 0.6c0.1 0 0.2 0.1 0.3 0.1 5.3 2.4 10.3 5.9 14.4 10.6l123.3 139.4c16 17.6 14.3 44.8-3.3 60.3z"  horiz-adv-x="1024" />

    
    <glyph glyph-name="shangchuan" unicode="&#58956;" d="M959.5 366.5c-2 84-59.4 161.2-144.4 192-46 126.4-165.9 211.5-300 213-132.5 1.4-253.2-79.2-303-202.5-87.4-32.2-146-112.6-147-199.5-1.2-104.1 80.7-199.5 193.9-216h12.8v0.1h0.5c23.5 0 42.5 19 42.5 42.5s-19 42.5-42.5 42.5H264v0.4c-65.5 5.3-117 60.2-117 127 0 70.2 56.7 127.1 126.8 127.5 23.4 110.2 121.3 192.9 238.5 192.9s215.1-82.7 238.5-192.9c70.1-0.4 126.8-57.3 126.8-127.5 0-67.9-53-123.3-119.9-127.2v-0.2h-6.6c-23.5 0-42.5-19-42.5-42.5s19-42.5 42.5-42.5h0.8v-0.1h19.3c111.2 17 190.7 111.4 188.3 213zM544.4 394.2c-4.1 4.7-9 8.2-14.4 10.6-0.1 0-0.2 0.1-0.3 0.1l-1.5 0.6c-0.2 0.1-0.4 0.2-0.6 0.2-0.4 0.2-0.8 0.3-1.2 0.4-0.3 0.1-0.6 0.2-0.8 0.3-0.3 0.1-0.7 0.2-1 0.3-0.3 0.1-0.7 0.2-1 0.3-0.3 0.1-0.6 0.2-0.9 0.2-0.4 0.1-0.8 0.2-1.1 0.3-0.3 0.1-0.6 0.1-0.8 0.2-0.4 0.1-0.8 0.2-1.2 0.2-0.3 0-0.5 0.1-0.8 0.1-0.4 0.1-0.8 0.1-1.2 0.2-0.3 0-0.6 0.1-0.8 0.1-0.4 0-0.8 0.1-1.2 0.1-0.3 0-0.6 0-0.9 0.1h-4.2c-0.3 0-0.6 0-0.9-0.1-0.4 0-0.8-0.1-1.2-0.1-0.3 0-0.6-0.1-0.8-0.1-0.4 0-0.8-0.1-1.2-0.2-0.3 0-0.5-0.1-0.8-0.1-0.4-0.1-0.8-0.1-1.2-0.2-0.3-0.1-0.6-0.1-0.8-0.2-0.4-0.1-0.8-0.2-1.1-0.3-0.3-0.1-0.6-0.1-0.9-0.2-0.3-0.1-0.7-0.2-1-0.3-0.3-0.1-0.7-0.2-1-0.3-0.3-0.1-0.6-0.2-0.8-0.3-0.4-0.1-0.8-0.3-1.2-0.4-0.2-0.1-0.4-0.2-0.6-0.2l-1.5-0.6c-0.1 0-0.2-0.1-0.3-0.1-5.3-2.4-10.3-5.9-14.4-10.6L357 254.79999999999995c-15.6-17.6-13.9-44.7 3.7-60.3 17.6-15.6 44.7-13.9 60.3 3.7l49.2 55.7v-211.6c0-23.2 18.9-42.1 42.1-42.1 23.2 0 42.1 18.9 42.1 42.1V253.79999999999995l49.2-55.7c15.6-17.6 42.7-19.3 60.3-3.7 17.6 15.6 19.3 42.7 3.7 60.3L544.4 394.2z"  horiz-adv-x="1024" />

    
    <glyph glyph-name="dingwei" unicode="&#58957;" d="M513.5 833.1c-185.6 0-336-149.4-336-333.7S486.6-64 513.5-64c19.5 0 336 379 336 563.3S699.1 833.1 513.5 833.1z m0-561.1c-123.7 0-224 100.3-224 224s100.3 224 224 224 224-100.3 224-224-100.2-224-224-224z"  horiz-adv-x="1024" />

    
    <glyph glyph-name="dingwei1" unicode="&#58958;" d="M512.5 833.1c-185.6 0-336-149.4-336-333.7S485.6-64 512.5-64c19.5 0 336 379 336 563.3S698 833.1 512.5 833.1z m0-561.1c-123.7 0-224 100.3-224 224s100.3 224 224 224 224-100.3 224-224-100.3-224-224-224zM512.5 494.5m-112.5 0a112.5 112.5 0 1 1 225 0 112.5 112.5 0 1 1-225 0Z"  horiz-adv-x="1024" />

    
    <glyph glyph-name="fangdaditu" unicode="&#58959;" d="M512.5 833.1c-185.6 0-336-149.4-336-333.7S485.6-64 512.5-64c19.5 0 336 379 336 563.3S698.1 833.1 512.5 833.1z m0-561.1c-123.7 0-224 100.3-224 224s100.3 224 224 224 224-100.3 224-224-100.3-224-224-224zM624.8 538.7h-70.7v70.7c0 22.9-18.7 41.7-41.7 41.7-22.9 0-41.7-18.7-41.7-41.7v-70.7H400c-22.9 0-41.7-18.8-41.7-41.7 0-22.9 18.7-41.7 41.7-41.7h70.7v-70.7c0-22.9 18.8-41.7 41.7-41.7 22.9 0 41.7 18.8 41.7 41.7v70.7h70.7c22.9 0 41.7 18.7 41.7 41.7 0 22.9-18.8 41.7-41.7 41.7z"  horiz-adv-x="1024" />

    
    <glyph glyph-name="suoxiaoditu" unicode="&#58960;" d="M512.5 833.1c-185.6 0-336-149.4-336-333.7S485.6-64 512.5-64c19.5 0 336 379 336 563.3S698.1 833.1 512.5 833.1z m0-561.1c-123.7 0-224 100.3-224 224s100.3 224 224 224 224-100.3 224-224-100.3-224-224-224zM624.8 538.7H400.2c-22.9 0-41.7-18.8-41.7-41.7 0-22.9 18.7-41.7 41.7-41.7h224.7c22.9 0 41.7 18.7 41.7 41.7-0.1 22.9-18.9 41.7-41.8 41.7z"  horiz-adv-x="1024" />

    
    <glyph glyph-name="dingwei2" unicode="&#58961;" d="M834.5 647.7l-0.7-0.5c-6.6 10.3-18.2 17.2-31.3 17.2-20.5 0-37.2-16.7-37.2-37.2 0-8.7 3-16.8 8.1-23.1 66.4-115.8 50.3-266.4-48.5-365.2L510.5 24.6 296.2 238.9C178 357 178 549.3 296.2 667.5c57.1 57.1 133.2 88.6 214.3 88.6 59.6 0 116.6-17.1 165.3-48.8 5.9-4 13-6.3 20.7-6.3 20.5 0 37.2 16.7 37.2 37.2 0 12-5.7 22.7-14.5 29.5l0.3 0.4c-146.7 97.4-346.9 81.5-476.1-47.7C96 573 96 333.3 243.3 186l237.1-237.1c8-8 18.7-12.5 30.1-12.5 11.4 0 22.1 4.4 30.1 12.5L777.7 186c125 125 143.9 316.5 56.8 461.7zM364 457.5c0-80.8 65.7-146.5 146.5-146.5S657 376.7 657 457.5 591.3 604 510.5 604 364 538.3 364 457.5z m217 0c0-38.9-31.6-70.5-70.5-70.5S440 418.6 440 457.5s31.6 70.5 70.5 70.5 70.5-31.6 70.5-70.5z"  horiz-adv-x="1024" />

    
    <glyph glyph-name="dingwei3" unicode="&#58962;" d="M512.6 383.6m-43.8 0a43.8 43.8 0 1 1 87.6 0 43.8 43.8 0 1 1-87.6 0ZM917.1 427.2h-45.6c-4 33.4-12.6 65.9-25.8 97.1-18.2 43-44.3 81.7-77.5 114.9s-71.8 59.2-114.9 77.5a357.58 357.58 0 0 1-97.1 25.8v45.6c0 24-19.6 43.7-43.7 43.7-24 0-43.7-19.6-43.7-43.7v-45.6c-33.4-4-65.9-12.6-97.1-25.8-43-18.2-81.7-44.3-114.9-77.5s-59.2-71.8-77.5-114.9a357.58 357.58 0 0 1-25.8-97.1H108c-24 0-43.7-19.6-43.7-43.7 0-24 19.6-43.7 43.7-43.7h45.6c4-33.4 12.6-65.9 25.8-97.1 18.2-43 44.3-81.7 77.5-114.9s71.8-59.2 114.9-77.5c31.2-13.2 63.7-21.8 97.1-25.8v-45.6c0-24 19.6-43.7 43.7-43.7 24 0 43.7 19.6 43.7 43.7v45.6c33.4 4 65.9 12.6 97.1 25.8 43.1 18.2 81.7 44.3 114.9 77.5s59.2 71.8 77.5 114.9c13.2 31.2 21.8 63.7 25.8 97.1h45.6c24 0 43.7 19.6 43.7 43.7-0.2 24.1-19.8 43.7-43.8 43.7zM556.2 105.5v76.2c0 24-19.6 43.7-43.7 43.7-24 0-43.7-19.6-43.7-43.7v-76.2c-120.3 18.8-215.6 114.1-234.4 234.4h76.2c24 0 43.7 19.6 43.7 43.7 0 24-19.6 43.7-43.7 43.7h-76.2c18.8 120.3 114.1 215.6 234.4 234.4v-76.2c0-24 19.6-43.7 43.7-43.7 24 0 43.7 19.6 43.7 43.7v76.2c120.3-18.8 215.6-114.1 234.4-234.4h-76.2c-24 0-43.7-19.6-43.7-43.7 0-24 19.6-43.7 43.7-43.7h76.2c-18.8-120.3-114.1-215.6-234.4-234.4z"  horiz-adv-x="1024" />

    
    <glyph glyph-name="diqiu" unicode="&#58963;" d="M511.6-63c-186.3 0-357.5 119.7-421.2 294.9C26 409 82.3 612.8 228.1 732 372.9 850.5 583 865.8 743.2 768.8c159.6-96.6 244-287 208.2-470.2C910.8 90.9 723-63 511.6-63z m250.5 710c-5.6-1-5.1 6.5-8.9 9.9-1.2-5.7 2.5-13.1 1.6-16.5-2.8-11-9-8.2-16.6-10.2 3.2-7.2 14.9-2.1 18.6 1.1 5.2 4.4 1 15 10 13.3-1.1 2.7-2.7 3.5-4.7 2.4-1-0.2 0.5 0.2 0 0z m11.4-9.4c-1.8 0.3-1.1 1.3-2.7 3-0.5-6.4 5.8-6.2 2.7-3-0.4 0.1 0.7-0.7 0 0z m98.1-304.3c0.7 4.7 4.6 18.9 2.6 23.1-2.4 5.1-6.3-2.1-5.7 5.2-7 0.5-6.5-14.9-5.7-17.4 1.1-3.5 6.3-7.2 8.8-10.9 1.1 7.7-0.2 0.4 0 0z m-711.7-36.4c3.5 9.8 6.5 2.7 11.1 8.8-3.5 7 0.1 3.5-10 3.7 8.4-0.1-5.9-7.4-2.8-1-1.2-2.6-0.1 0.7-2.8 1 0.4-1.3 2.3-12.9 4.5-12.5 0.9 2.7-0.4 0 0 0z m14.9 145.5c-0.2-0.8 1.6 0.4 0 0-0.1-0.2 0.2 0.1 0 0z m-6.3 63.4c0.1-0.2 0.1 0.3 0 0 0-0.1 0 0 0 0z m101.1 141.4c-4.8 0.4-1-0.2-0.8 0.6 1 4-4.8-3.8-0.1 1.7-1.5 0.5-2.9 1-4.3 1.7 0.4 0 2.9-0.9 3.3 0-1.9 3.3-6.5-2.4-6.7-2.5 2.5-0.8 8.3-1.4 8.6-1.5-0.3 0.1 0 0 0 0z m-16.7-6.1c-1.2-1.3 1.5-0.9 0 0-0.2-0.2 0.3-0.2 0 0z m101.2 71.8c3.8-2.6-0.6-0.3-3.1-1.5 3.5-0.7-3.3-2.5-3-3.3 3.6 0.9 7.4 2.5 10-1.4 1.4-2.2-8.7-1-9.1-1.1 0.1-0.4 3.2-0.6 0.4-1.1 0.6-0.3 4.8 0.5 5.6-0.4 1.7 1.3-7.4-5-4.5-1.9 2.8 0.2 7.1 2.9 6.9-1.5 0.7 0.4 6.1 3.9 6.5 1.3 0.5-2.8-8-3-9.1-2.9 0.7-1.9 9.4-6.8 10.9-5.6-3.2-2.3-6.1-5.1-10.6-2.7 0 1.3 4.3-0.5 4 1.5-1.7-1.3-6.9-2.6-7.9-2.5 2.4-2.3-0.8-3.2-4.5-4.3 0.1 1.2 0.8-3.4-0.1-2.8-1.9 1.3 7.7 2.3 7.7 2.3-0.9-1.1-3.6-2.2-4.1-2.9 0.4 0.2 7.3 2.3 8.1 0.7 1.5-3-5.3-0.6-0.4-3.5 4.9 3.9 9.6 0.4 14 1.4 0 0 0.6-2.9 1-3.1 0.2 0.1 8.6-2.3 7.2-4.7-1-1.7-4.4 0.1-4.9 1.4-1.5-0.9-1.1-1.4-7.3-1-6.2 0.3-13.8 3-20.5 2.1 0.5-0.9 6.3-0.9 6.1-1.7-1.2-0.3-1.7-0.7-1.5-1.4 4.8-1.5 18-0.2 1.7-4.4 5-2.3-2.1-2.2-0.4-5 0.8 0 10.6 3.6 10.2 2.8-0.2-0.3-6.1-4.6-6.4-4.4 6.7 0.6 16.4 6.7 23.1 9.4 1-5.1-13.8-25.2-23.8-24.6 4-4.2-7.7-0.5-8 0.1-0.2-0.1-0.4-0.3-0.4-0.6 4.1-4.8 1.8-2.1-0.5-8.8-0.5-1.4 1-3.5 0.4-4.8-1.4-2.9-7.5-4.4-7.5-4.5-0.2-3.2-6.3-4.8-6-7.8-0.5-0.1-1-0.1-1.5 0.1-1.1 0.7 1.3 5 1.6 5.5-1.2-0.5-4.9-1.4-5.2-3.8 1.4-0.2 2-1 1.8-2.3 1.8-1.9-5.8-0.6-5.5-0.5 1.7-3.6-4.4 0-3.4-2.6 8.5 1.6-3.3-3.6-3.6-3.7 2.4-1 5.4-2.7 5.6-4.9-1.3-0.7-4.1-1.3-5.6-1.8 0.1 0 6.8-1.6 5.7-3.1-0.7-0.9-4.2-0.1-5-0.1 1.1-0.5 3-1.2 4.3-0.5 0.3-1.9-4.1-3.3-4.2-3.4 0-0.2 5.2-4-1.4-0.9 1.4-3.8 1.7-2.2-2.3-4.7-0.2 0.2 2.9-2.5 2.7-2-1.2-0.5-2.5-0.4-3.9 0.4 3.8-3 3.7-5.6 5-5.4-0.4-0.4-3.1-6.8-4.6-4.2 0.5-0.9 5.2-1.2 0.7-2.8 1.3-0.7 3.4 0-1.2-0.8 0.7-1.8 3.2-0.4 4.3-0.4-1.5-1.4-3.4-2.3-5.5-2.5 0.4-1.1 5.2 0.7 4.2-1.7-0.4-1-10.3-2.4-12.1-2.1-0.2 0.3 1.6 4.1 1.7 4.3-0.9-0.5-1.7-1.2-2.4-1.9-1.7 2.2-3-1-4.1 0.9 0.1 0.1 3.2 2.5 3.2 2.8-0.6 0.3-1 0.7-1.2 1.3-1.1-0.9-2-0.9-3.1-1.8 0.3 1 3.1 2.2 0.5 3.1-2.4-0.9-7.7-5.8-12.1-4.6 5.4 1-0.9 1.5-0.7 1.4-1 0.8-1.3 1.3-3.6 2.4 5.5 1.3-3 0-3.5 0.5 2.6 1.1 2.9 2.7-1 2 0.6 0.7 1.2 1.3 2 1.6-1.9 3.5-4.2-0.9-4.4 7.5-2.7 0.7-2.1-1.3-4.6-0.8-1.6 1.9-3.1 2.7 0 5.2-4-0.7-2.5-0.9-5.4 0.5 1.7 6 1.1-5.1 0.2 1.9 1.6-0.3 5.4 1.3 7 1.9-2.1 2.4-6.2-3.5-7.9-0.8 5 5.9 5.1 1.6 11.1 2-0.3 1-7.1 5.6-7.1 5.7-0.1-0.5-4.4-8.9-5.9-7.3-1 0.9 1.3 5 2.2 5.2-3.1 2.7-4.7 1.4-1.6 4.8 0.4-1.3-6.1 0.9-6.4 1 0.2 0.9 0.9 1.5 2.1 1.7-1.6-0.9-2.6-0.8-3 0.4 2.1 4.9 12.8 5.6 16.1 8.4-2.8 0.8-16.4-5.8-16.7-7 1 0.5 1 0.8-0.1 0.8-2.2 1.4 7.8-0.9 1.4 2.9 1.6 0.3 3.1 0.7 4.7 1.2-0.1-0.1-6.1 1.8-6.9 2.4 3.8 1.1 8.3 1.5 12.2 0.9-3.8 3.6-8.1-1-12.4 0.6 4 3.6 7.9 3.1 12.9 3.2-0.3 1 0.6 1.4 0.4 2-4.5 1.3-8.3-4.5-12.7-3.6-2.3 2.5 6.2 3.7 6 3.6 0.4 0.2-3.2 0.6-2.7 1.4 3.3 0.6 7.4-1.7 10.5-0.6-1 1.3-3.3 3-3.6 2.6 0.8-1.3-6.5-1.3-7.9-1.2 1.2 0.4 10.9 4.8 10.7 4.8-6.5-1.3 2.5 2.8 2.5 3.1-1.5 1-1.2 0.2-3.2-0.1-0.3 1.7 1.7 4.3 2.7 6.5-3-1-12.4 2.6-14.1 0.9 0.7-0.1 8.4-3.4 7.6-4.7-0.7-1.3-10.4-4.4-9.8-1.8 0.8 0.6 1.6 0.9 2.6 0.8-7.3 7.3-29.9-27.2-32.9-31 2.3 0.5 4-0.7 5-3.7-1.8 0-2.8-0.2-2.8-2 5.9 0 8.5 0.5 13.9-3.3-1.4-4-3.3-0.4-5.9-2 0.5-1.1 1.3-2 2.4-2.8-4.8-0.7-7 0.8-5.3-6.1-6.2 0-8.2 7.3-14.6 10.1-2.4-3.3-2.1-2.5-4.1-5.5 2.3-4.7 7.1-6.4 11.8-8.7-3.4 0 2.8-5.2 2.6-7.5-1.4 1-2.6 2.4-3.4 4-0.3-2.3 1.8-8.7 2-9-3.7 1.5-9.1 5.9-12.3 8.4 0.7-3.8-1.6-0.3-4.4-0.3 0.6-5.1 10.1-6.7 11.9-12.5-6.9 2.5-26.6 14.1-23.5-2.4 0.7-3.6 8-1.9 9.3-4.7 1.4-3-2.5-11-1.3-12.5 12.6 0 14.1-3.6 20.7 9.7 3.2-3.3 14.5-18.2 13.4-20.4-1.4 0.5-2.7 0.5-3.8-0.1 2.3-3.4 9-5.2 7.1-9.7 5-0.2 7.7-1.5 12.8-2.8-2.3-4.2-10.4-1.8-11.4-7.2 9.8 3.9 24.2 2.5 14.8-9.1-6.1-7.6-21.6-5.7-30.3-7-11.6-1.7-22.5-5.9-28.5-18.6 3.9 3.1 23.7 20.9 27.9 9.7-0.9-1.9-9.3-3.1-9.3-3 1.7-0.2 6.2-0.8 7.3-1.6-1.1-1.1-1.6-2.2-2.8-3.4 1.7 0.1 4-3.8 6.4-5-0.2-0.1-1.2-0.3-1.2-0.5 4.7 0 11-1.5 12.8-3.8-6.1-2.4-22.6-10.4-20-3.5-0.5-0.9-1-1.1-1.5-0.6 1.5 2.9 8.7 4.5 11.6 4.4-1.1 1.9-3.2 1.8-6.2-0.1 0.2 1.3 1 2.3 2.6 2.8-1.8 0 0.6-1.1-1.5 0.6 0.9-2.6-8.4-5.4-10.1-4.1 2.1-4.7-7.2-3-6.8-3 0.3 0.7-14.9-17.9-4.9-13.6 0-0.3-4.6-2.3-4.8-0.3-1.6-0.7-12.2-6.8-11-3.1-1.3-3.5-0.4-7.7-4.4-10.7-0.5 0.2-2.2 4.7-1.9 4.4-1.5-0.9 3.1-11.4-2.5-12.7-1.1 3.2-2 10 0.4 10.6-0.7 0.1-0.7 0.4-0.3 1-1.8-1.3-3.4-1.9-1.8-5.9-1.9 0-0.8 4.3 0.2-1.3-1.8 1-1.9 1.7-3.8 1.6-0.5 2.4 5.6-5.7 3.3-3.4-3.5 3.1 0.9-0.4 1-1.7-0.6 0-1.1-0.7-2 0.4 0.9-0.7 1.7-0.9 1.8-2.1-1.3 0-1.8 1.8-2.8 1.2 2.2-4.3 4-1.4 4.7-5.4-1.1 0-2.9-0.3-3.7 1 0-3.9 2.8 0.6 2.8-3-0.1 0.2 1.2 3.1 1.3 0.2-1.3-2.1-4.1-1.2-5.4-0.7 0.4-0.6 2.2-0.9 2.2-1.4-0.7-1.4-1.4-1.5-2.2-0.4 0.7-1.8 1.8-0.4 3-0.9-2.8-5.6-15.3-6.7-18.8-13.3-5.6-10.8 5.7-19.7 1.8-31.5-7.6 0-9.3 17.2-13.4 21.5-0.5-10.5-0.5-20.5-0.1-31 10.8 5 30.8-5.6 38.3-11.2-0.8-1.7-12.8-1.3-14.2-1.2 0 0.7 2.2 2.2 2.2 2.8-5.8 4.2-15 3.4-20.6 7.8 5.8 1.6-4.2 1.2-5.5-0.7-3.6-5 4.1-53.8 7.3-55.7 4.8-2.8 23.1 7.6 16-6.3 1.5 0.5 6.2 5.9 7.1 1.4-1.5-1.8-7.2-8.3-2.2-12.1 3.6 0.7 1.2 7.1 0.3 7.7 2.6 0.6 5 1.6 7.2 2.9-1.2 1-1.3-0.3-2.3 1.4-2.4-6.7 33.5-5.7 33.4-5.5-0.6-1.2-1.8-0.6-3.1-0.5 0-3.5 6.4-3 8.8-4.7-0.2-0.3-3.9-3.5-3.9-3.4 6.7-0.4 12.2-0.3 13.3-8.2 0-3.8 58.4-8.3 26.1-33 1.3-0.9 3.7 1.2 4.7 1.5 2.3-5.5 6.4-0.6 6.4-4.9 9.4 4.6 16.6 8.6 19.6-3.3 9.7 6.5 35-3.9 38.7-13.1 3.1-7.7-9.8-26.7-14.9-26-0.2-11.2-1.5-21.6-5.4-30.8-5.5-12.9-7.8-9.3-19.1-14.4-4.5-2.1-13.2-5.3-16-9.6-1.3-1.9 1.3-9 0.2-11.6-1.9-4.5-8-13.1-11.5-16.2 1.5 2.1 2.6 4.3 3.5 6.8-0.8 0-1.7 0.1-2.5 0.3 0-12.2-7.1 4.7 3.5-11.8 5.6-8.7 19-16.7 27.2-23 18.9-14.5 39.3-27.2 60.7-37.7 41.2-20.3 86.1-32.6 131.9-36.2 81.8-6.4 164.5 15.3 232.5 61.5 64.8 44 114.5 108.8 140 182.8 5.2 15.2 15.4 38.5 13.5 54.6-0.4 3.2-5.3 11.4-5.9 12.8-0.4 1-6 8.1-5.6 6.1-0.8 4.3 1.9 7.4 1.2 11.3-0.6 3-1.2 26.8-7.2 26.8-0.7-6.6-8.9-6.9-10.9-5.4 0.2 8.1 0.7 9.4-2.8 13.3 1.9 0.4-10.8 14.9-11.7 16.2-6.1-5.9-5.5-2.4-11.7-6-6-3.5-21.1-16.2-26.3-22.5-3.5-4.3-10.6-25.5-8.8-29.2-5.7-1.9-4-6.2-10-2.3-2.7 1.8-5.3 13.3-6.9 17.2-4.6 11.1-12.4 27.8-9.3 39.1-4.4 0.2-9.3-13.7-15.6 0.8 1.4 0 6.2-0.3 6.1 2.4-7.6-2.7-9.2 5.9-13.3 7.8-5.4 2.6-6 2-13.9 2.7-6.1 0.6-13.2-2-19.3 0.1-2.5 0.9-8.8 7.2-9 7.2-4.2 1.1-6.9-2.9-9.9-1.8-7.2 2.6-9.6 7.8-15.1 11.3-6.6 4.1-6.2 8.4-12.5 0.7 8.8-4.3 7.4-13.8 12.9-21.1 0.6-0.1 0.8 6.3 1.7 6.9 3-0.4-0.2-7 4.8-8.4 10.6-2.9 8.7 9.1 16.4 9.1 0.9-9.6 12.8-9.8 14.1-17.1 0.8-4.9-13.2-16.4-15.6-18.3-6-4.8-41.7-26.8-50.1-21.3-3.9 2.6-2.2 10.2-3.8 14.2-2.5 5.9-7.7 11.1-10.8 16.4-5.4 9.3-11.4 18.4-16.6 28.4-5.6 10.9-6.5 15.1-4.3 28.5 0.6 3.6 5.6 14.2 3.6 16.9-12.4 0-25.5-5.7-33.8 0.7-5.6 4.2-2.9 7.3-2.9 12.6-13.6-2 10.9 6.7 8.9 4.1-0.4 0.3-0.8 0.4-1.3 0.4 0.6 1.6 2 2 4.3 1.2 0-1.1-3.4 1.3-3.4 1.2-0.6-1.1 16.7 4.7 16.8 4.7 8.8 0.4 11.8-3.8 20.1-4.8 31.4-3.7-0.4 15.7-4.7 21.4 3.2 0.8 3.9 2.7 6.1 4.4-3.8 6.1-4.1-0.8 3.4 5.1-1.3 2.5-19.2-4.2-22.2-5.1 2.2-4.5 6.9-3.7 10.8-4.2-0.9-3.4-21.9-8.5-11.7 2.9-0.3 0.6-6 3.6-6.9 4.6-6.3-4.2-9.6-6.2-13.1-11.7-5.8-9.1-3.6-9.2 1.7-16.3 0.3 0.7-11.7-5.4-12-5.5 1.4 5.3-12.5 6-7.8 0.2 0-0.3-2 1.1-2.6 0.6 1-0.4 1.4-0.9 1.1-1.5-1.1-0.3-2 0.1-2.7 1.3 0-4.4 0.1 1.3-2 1.9-1.4-2.9-2-2.2 2-6.9-1.3-1.7-0.1 1.6-2 0.4 0-1.5-0.9-1.4-0.9-2 2.2-0.7 4.2-1.9 5.9-3.5-0.8-0.2 0.6-1.5-0.4-2.2-2.1 1.4-1 2.2-3.9 1.2 1.3-1.4 1.1-1.1 2-2.2-2.4 0-0.7-0.1-3.2 0.6 0-1.6 0.4-3.1 1.3-4.5-1.3 0.9-2.1 0.7-2.4-0.5-10 5.1 2.9 8 2.9 7.7-10.2 0.7-10.2 6.5-14.6 12.9-2.7 3.9-13.9 16.9-16.4 16.7-1.7 1.7-3.3 3.5-4.8 5.4-0.1-1.3-0.7-2.3-1.9-2.8-1.2 3.1-0.1 3.7-0.8 4.8-20-1.2 20-27 19.1-29.5-12.1 7.9-3.8-13.3-11.2-8.4 0 7.7-1.3 9.6-5.9 13.4-4.1 3.4-10.8 10.2-15.3 12.7-6.2 3.5-5.5 2.2-12 2.2 1 0-11.3-3.2-10-2.5-1.3-0.7-3.2 0.9-4.1 0.5-2.6-1.3-3-5.2-3.9-5.8-11.8-7.5-10.9-20-22.3-26-13.7-7.2-16.5 5.9-27.1 0.7 0 4.3 0.4 8.2-0.1 9.1-0.6-0.4-1.5-1.9-2.1-0.6 7.2 15.4-3.6 19.2 10.8 23.1 6.4 1.7 15.6-3.1 21.2-0.8 3.8 1.6 0 13.6 3.8 8.9-2.7 12-12.1 7.6-16 15.1 2.7 0.4 1.1 2-0.4 1.4 0.3 4.5 12.4 0.9 13.5 1.8 0.1 2-0.5 3.9-1.9 5.4 2.3-0.2 6.2-4.2 9.2-1.3 2.2-0.7 16.2 17.6 19.2 18.4 1.4-1 0.4-2-0.1-3.2 4.2-0.6-0.2 4.9 8.9 4.9 0.4 1.1 5.5 2.4 7.8 3.6-1 0.4-3.9 8.8-3.9 9.3 0.6 9.5 5.4 6.1 11.2 5.9 0 0-12.6-13.5 0.7-12.3 0.6-0.8 0.2-1.5-1.2-2-0.4 0.5 13.7-1.6 15.4-2.2-0.1 5.2 25.1 6.2 27.3 9.6 3.6 5.7-0.1 7.9 5.7 13.6 0.9 0.9 5.9-9.8 7.7 3.7-12.3 8.1 11.2 10.9 15 7 0.3 5.2 3.8 0.1 8.1 3.1 0.4-0.7-8.9 4.6-6.6 4.8-0.9-1.5-8.1-3.3-8.1-1-1.1-8.8-35.4 0-16.1 20.2 0-1.7 8.7 7.2 11.2 7.1 0.4 7.2-8.6 7.4-12.5 5.7-5.7-2.4-4.8-8.9-8.5-13.7-3.7-4.8-10.3-4.8-11.4-9.9-2.2-10.5 6.4-6.6 6.6-14.5-0.6 0-11-2.2-10.7-1.6 2.8 0 6.3-0.3 8.6-0.3 0-0.1-3.3-5.7-3.3-1.8-2.7-1-1.7-2.8-5.2-2.9 1.1-5.5 0.7-9-2.8-15.3-3.4 3.5-7.5-4.8-12.2-3.8 1.7 8.4-7.1 17.2-9.1 24.9-6.5-4.7-17-16.4-20.8-3.7 0.2 0 1.9-0.7 2.3-1-0.7 0.9 0.5 0.3 0.5 1-1.9-0.1-0.4 2.8-0.3 3.2-2.1-2-0.5-1.1-1.8-0.1 0.1-1.6-1.6-1.4-2-1.2-0.7 1-0.4 1.9 0.7 2.5 0.4-0.9 2-1 3.2 0.6-3.4-1.4-3.6 5.2-3.2 7.6 0.7 3.9 6.8 10.6 6.7 11.4 5 5 15.3 7.2 21 14.9 2.1 2.8 5.4 10.7 6.8 12.2 7.4 8.1 15.8 14.4 26.5 20.2 1.1-0.7-0.1-2.4-0.3-3.3 5.6 4.2 14.9 12.1 23 11.5-1.9-1.4-2.9-3.2-3-5.6 3.5-0.4 5.9 12.1 6.3 2 3.2 1.5 8 9.5 5.1 0.2 0.7-0.1 11.4 5.1 11.9-0.8-2.6-1.4-5.3-1.9-8.3-1.3 2.6-3.3 15.3-4.6 18.5-5.2 4.4-0.9 14.8-4.2 21.4-8.3 8-4.9 17.9-10.3 1.6-14.9-7.6-2.1-21.9 9.2-27.2 6.5 2.8-2.6 7.9-5.2 9.7-7.8 2.3-3.4-6-1.4 0-6.9 2.9-2.6 7.5-8.4 13.1-6.3 3.4 1.3-5.1 4.4-5.2 6.3 3.4 3.2 10.8-0.7 15.3-2.1 5.2 7.5-9.8 2.1 2.9 9.4 6.3 3.6 5.4 1.2 12.3 0.8 0 6.6-1.5 10.5-0.8 16.9 5.2 1.3 9.1-0.7 11.4-5.3-3.1 0.7-5.5-0.3-7.1-2.8 11.9-9.2 24.7 10.6 36.8 10.6-0.4-3.5-2.3-2.8-2.3-4.8 5.3-1.8 9.5 2.2 15 2.7 2.5 0.2 13.8-0.2 11.5-1.3 3.9 9.4 5.4 13 21.5 6.5 4.9-2 11.5-9.8 15.4-5.3 3.9 4.6-6.7 6.4-8.3 8.9 0.7 3.9 6.5 12.8 6.3 14.2-1.2 11.7 12.4-10.3-5.9 10.7-6.1 7.1-17.7 12.4-25.4 17.3-2.8-1.6-10.5-6.3-13.4-9.2 4-6-3.5-3.3-6.6-3.9-15.6-3.2 0.4 4.8 0.4 4.9 2.5 5.1 2.8 8.2 12 12.8-104.3 60.7-233.8 66.1-342.6 13.8 0.3-0.2 47.8 23 0 0z m2.5-17.6c0.2-0.3 0.1 0 0 0 0-0.1 0 0 0 0z m314.8-207.9c1.5-0.7-9.7 13.7-9.7 14.3 1 1.1 3.7-0.9 5 0-3.4 4.6 2.3 4.3 6.9 3.8-3.6 7.1 0.2 11.2-13.4 6.2-10.7-3.9-10.2-5.9-10.1-15 0.6 0-0.1 1.6 0.9 1.6 0-9.1 10-11.4 11.3-17.8-3.9 0-4.3-3.4-4.9-6.1-0.5 0.3-0.8-13.7 11.7-11.6 13.7 2.3 3.7 12.4 4.5 12.9 0 2 2.3 0.6 2.3 1.3-1.6 0.5-5.4 4.4-2.9 7.2 1.1-2.1 6.2-2.4 7.2-0.4-4.7 9.4-9.2 0-8.8 3.6-0.2 0-0.1-0.3 0 0z m-106.6-1.2c-1.4 2.8-1.3-1.4 0 0-0.1 0.3 0-0.1 0 0zM684 678.7c6.8-2.4-2-3.3-1.1-7.4 0.8-4.1 6.8-9.6 6.9-12.5-6.4 0.1-8.8-0.6-14.4 0.4-0.2 2.2 2.2 1.6 2.6 3.3-13.6 4.2-9.4 0.6-7.2 7.3 1.5 4.4 1.7 10.4 13.2 8.9 0.9-0.4-2.4 0.3 0 0z m-121.6 52.8c-7.3-3.8-12.6-3.9-20.9-3.5 0 3.4 3.9 1.7 3.9 5.4-5-0.8-9.9-0.5-14.8 0.9 2.5 2.5 3.9 3.9 6.3 7 6.3-7.4 8-2.8 13.6-0.3-1.9-6.6 23.9-0.4 11.9-9.5-1.1-0.5 1.5 1.1 0 0z m-28.3-3.3c2.8-0.4 5.2-1.6 7.1-3.8-13.6-6.5-9.6-22.9-26.3-12.7 2.6 2.8 6.5 0.4 9 3.7-3.8 3.5-8.9-3.4-11.4 1.9 0.4 0 10.9 2.7 10.9 4.3-1.4 0.2-26.9 0.5-16.6 5.3-2.7 4.1-5.1-2-6.5 4.5 7.2 5.5 8.4-0.8 13.2-1.8 0 1.2 0.2 2.3 0.6 3.4 4 1.7 4.2-4.6 7.6-5.3 2.6 2.3 1 14.4 6.7 2.3 4.5-2.1 0.1 5.5 5.7-1.8 0.9-0.6-0.8 1.1 0 0z m-77.2-190.9s4-0.5 4.4-0.5c0-2.9-27.3-7.1-29.2-6.6 2.6 5.1 10.6 4.5 12.4 8.1-3.1-1.3-7.6-1-10.2 1.2 5.1 5.1 2.7 3 2.7 5.4 3.3 6.5 6.8-1.4 7 7.5-3.1 0-3.4 0.9-1.2 3.7-3.1 0.8-5.4-1-8-0.4 0.4 2.7 2.3 5.4 1.8 7.6-1.4 0.1-2.7-0.6-3.6-2.1 0 1.9 0.6 2.6 1.2 4.4-2.1 1.4-1-1.2-3.1-0.2 3.2 5.4 1.5 16.1 11.8 11.9 0.9-1.6-4.3-3.5-4.4-5.3 0.6-0.8 9.5 1.1 9.2-1.4-0.6-3.8-6.5-5-3.1-6.9-1.4-0.7-2.9-1.1-4.5-1.2 1.1-2.2 21.4-9.7 15.8-18.1 4.4-0.8 12.1-4 1-7.1 0-0.1 1.5 0.4 0 0zM433 560.8c0.5-3.9-1.9-0.5 0 0 0.1-0.5-0.2-0.1 0 0z m-0.5-7.9c-4.3-7.3-0.8-12-12.4-14.8-3.7-0.9-7.5 1.8-7.3 3.3 0.9 0 5.1 1.4 5.4 2.7-3.3-0.4-1.2 1.7 0.9 2.6-0.5 1.3-3.8 0.6-5.1 1.2 0.8 1.1 0.7 1.4 2 2.8-0.7 0-1.3 0.1-2 0.2 0 3.8 4.1 1.9 6.4 1.7-0.7 1.2-0.1 2 1.6 2.4-4.9-0.1 9 8.5 10.5-2.1-0.8-1.4-0.2 1.8 0 0z m-17.2-114.4c1.6 4.2 14.1 20 17.4 20.9 1 0.3 10.8-4.1 13.7-3.8 2.2 0.2 6.3 2.5 8.7 3.1 9.6 2.5 17.8 4.9 27.6 5.6 4.9 0.4 14.8-1.4 18 0.5 0.1-5.7 0.3-8.8-4.2-13.7 0.5-2.5 20.2-11.2 23.8-12.9 19.6-9.3 11.6 6.1 28.2 6.3 6.7 0.1 16.8-7.6 25.2-8.2 8.9-0.6 32.5 6.8 22.1-13.7-2.7-0.6-6.3 8.1-6.7 9.2 0.8 0.3 24.8-59.7 29.3-63.5 0.6 0.2 0.7 0.8 0.4 1.6 4.5-2.5 17.9-12.7 11.1-15.9 0-12.4 31.9 3.7 35.1 0.4 9.1-9.5-26.7-41-30.6-44.9-12.1-11.7-20.4-21.2-17.4-36.1 4.5-22.3 9.9-25.5-9-40.3-15.9-12.4-4.2-11.8-7.6-24.6-1.2-4.5-9.1-10.6-10.4-12.6-9-13.8-15.5-31.6-34-36-5.5-1.3-23.1-2.3-25.4 0-2.7 2.9-1.6 11.4-3.5 16-5.2 12.8-8.9 21.3-13 34.2-5.7 18-11.2 22.6-6.9 41.2 1.8 7.8 4.9 13 2.5 21.6-1.6 5.7-23.1 34.5-14.1 33.5 0 1.2 0.6 13.9-0.5 15.6-2.7 3.7-6.1 1.5-8.2 2.6-1.6 0.9-7.9 2.1-9.9 2.7 0.6-0.2 0.4 1.5-0.7 1.8-11.1 3.2-22.7-0.1-33.9-2-11.9-2.1-36.3-2.9-41.1 13.3 2.7 0-9.5 12.3-7.9 14.2-3.7 4.3-7.9 3.5-8.3 11.3 0-0.4 4.8 31.2 0.5 26.3-1 7.2 9.5 20.6 14.1 25.5 7.5 7.7 11.9 11 15.6 20.8 0.5 1.2-1-2.8 0 0z m-18.2 177.6c-0.6-7.7-28.6-11.2-33.4-5.3 9.1 9.5-1.8 0.9-4.7 5.3 0.5 1.5 8.7 1.7 7.8 3.4-2.3 4.3-7.9-1.2-9.9 2-1.9 2.8 5.4-0.8 2.2 3.4 1.5 0.6 3 0.6 4.5 0.1 0 7.4 4-2.6 5.8-5.2 6.2 5.7 8 5.2 14.3 5.5 6.4 0.3 5.2 4.7 11.9-0.4 2.1-1.5 8.1-7.2 1.5-8.8 0-0.3 0.8 0.2 0 0z m94.8-295.6c-5.3-2.8-0.4 0.7 0 0-0.9-0.5-0.3 0.5 0 0z m141.9-103.1c9.8 3.2-0.7 12.3 1.7 16.6 4.4 7.8 5.7 2.4 10.1 6.7 3.5 3.5 5.8 4.4 6.1 9.8 3.3-0.4 4.1 5.5 5.9 4.7 3.3-1.4 5.8-12.4 3.3-14.6-3.2 2-0.6 2.9-2.3 1.9-0.1-8-4.2-45.4-18-43.4-5.4 0.6-10.8 15.4-6.8 18.3 0.4 0.1-0.6-0.5 0 0z m-39.2 238c-2.5-0.2-6.2-4.2-7.2 0.4 2-0.1 7.2 2 9.3 2.8-2.8-0.9-3.5-1.9-2.1-3.2-1.8-0.1-0.2 0.3 0 0z m-37.9-0.5c0.2 2.1-1.5 2.6-5 1.6 0.3 1.4 0.3 1.1 0.9 1.9 0-1.3 9.2-2.5 10.5-1.7-0.4-2.9-2.6-3.5-6.4-1.8 0 0.2 1.9 0.1 0 0z m-38.6 9.6c-1.9-1.1-10.1 0.8-11.6 3.7 0.7 2.2 10.4 2.3 12.4 1.9 0-0.1-0.8-5.8-0.8-5.6-0.5-0.3 0.2 0.5 0 0z m-22.8 13c0.5-4.2-2.2-1.7-3.7-3.6-5.3 1.1 1.6 19.4 3.7 3.6 0.2-1.2-0.1 0.6 0 0z m-2.7 7.9c0 2.4-4.8 4.8 1.2 8 0.8-0.6 1-8.4-1.2-8 0 0.1 0.2 0 0 0zM369.1 683.3c-1.7-1.7-11.8 1-11.5 1.4 1.2 2 9.1 1.7 10.2 0.3-0.8-0.1-1.5-0.4-2.2-0.8 3.5 0 4.7-0.3 3.5-0.9-0.2-0.2 0 0 0 0z m-7 3.9c-1.1-0.6-4.4-2.2-5.6-1.6 0.2 2.1 12.7 4 5.6 1.6-0.5-0.3 0.8 0.2 0 0z m-7.4 1.3c1.3 0.5 2.7 0.5 4-0.2-1.5-0.8-6-2.6-4 0.2 0.6 0.1-0.3-0.3 0 0z m6.2 16.8c-4 1 0.4 4.9 3.5 2.5 0.9-0.7-3.7-2.5-3.5-2.5-0.3 0.1 0.5 0 0 0z m-1.8-3.2c-5.7-0.9 3.1 2.7 0 0-0.8-0.1 0.9 0.7 0 0z m-1.7 1.8s0.1-0.4 0 0z m3.3-7c-3.7-0.3-4.2 0.5-1.3 2.3 5.4 1.1 2.8-1.8 1.3-2.3-1.3-0.5 0.4 0.2 0 0z m3.7-29.2c-1.1-0.4-6.3-3.8-7.5-3.2-4.7 5.7 14.5 7.1 7.5 3.2-0.3-0.1 0.7 0.4 0 0z m-68.8-92.6c2 6 1.3-3.8 0 0 0.2 0.6 0 0 0 0z m-24.1-92.2c-0.3 2.8-0.3 0.5-2 0.7-0.2 1.7 2 3.1-0.5 4.1-1.5-3.6-3.8-5-6.7-4.1-0.6 2.3 4.3 1.6 4.3 3.7-5 0.6-10.5 0.5-17.9-0.3-1 3 2.5 3.1 4.2 4.8-3.1 0.8 4.7 17.8 11 15.7 0.2-0.4-5.3-8.1-5.2-9.9 3.1 0.7 1.2 2.9 4.8 1.5-4.4-4.4 6.6-2.6 8.5-3.7-0.7-0.9-1.6-1.7-2.6-2.3 2.2-2.2 1.9-0.3 4.2-1.2 0-1.2-2.3-1.7-3-2 0-0.9 0.3-1.7 1.1-2.4 4.3 2.2 4.3-5.9-0.2-4.6 0 0.5 0.8-0.2 0 0z m-1.4-230c-9.1-10.6-9.9 14.5 1.3 3.7-0.4-1.2-0.9-2.5-1.3-3.7-1.2-1.4 0.7 0.8 0 0z m-2.3 389.6c1.7-1.5-3.8-4 0 0 0.8-0.7-0.8-0.9 0 0z m-28.1-164c0.4 2.2 1.4 4.2 3 5.8 4.4-3-1.8-3.3-1.5-6.1 1.9-1.2 2.8 3.7 5.1 0.6-2.1-2.6-4.3-2.8-6.6-0.3-0.5 2.1 0.7-2.9 0 0z m-21.6-128c-2.4-1.2-3.4-0.7-3 1.6 1 1 5.1 0.5 6.1-0.3-0.6-1.4-1.6-1.9-3.1-1.3-1.2 0 1.7 0 0 0z m-0.8-50.1c-0.8 2.1-1 2.3 2.2 2.3 0-3.9-6.2-4.1-2.2-2.3-0.2 0.4-0.5-0.2 0 0z m-11.6 51.9c-2.9 1-6.5-0.6-7.6-3.3-1.5 0.5-11.8 2-12.5 3.5 1.1 2.2 6.1-1 8.6 0.6-2.1 3.1-0.9 2.6-4.7 4.5 0 4.3 19.5-2.8 20.9-4.9-2.5-3.7-1.3 1.2-4.7-0.4-0.3 0.1 1.8 0.8 0 0z m-24.8 79c2.3-5 0.1-0.7 0 0 0.3-0.7 0.1-0.9 0 0z m-0.2 0.6c0.3-0.9 0.1-0.7 0 0 0.1-0.2 0.1-0.2 0 0z m0 0.3c0.1-0.4 0-0.3 0 0 0-0.1 0-0.1 0 0z m-4.7-81.9c-2.2 0.5-4.2-1.7-6.3 1.3 2.7 2 11-2.5 6.3-1.3-1.1 0.3 0.7-0.2 0 0z m607.1-6.8c3.1 10.7 10.9-20 1.2-12.6-3.2 2.4-3.3 10.9-1.2 12.6 0.3 1.1-0.5-0.4 0 0z m-289.4 226c1.4 0.5 3.2 4.1 5.2 3.3-1.6-2.6-7.3-8-9.8-5.5 0.8 2 2.4 2.7 4.6 2.2 1.1 0.4-1-0.1 0 0z m9.4-7.7c1.1-3.7 1.8 0.7 3.5 0.6 0.7-4.4-2.7-2.5 0-4-0.6-0.6-1.3-1.2-2-1.8 0.3-0.7-5.2 7.1-1.5 5.2 0.3-0.9-0.1 0.1 0 0zM203.6 459.1c0 0.9 1.8-2.7 0 0 0 0 0.2-0.3 0 0z m1-0.8c0-0.6-0.1 0 0 0 0-0.1 0 0 0 0z m-24.3-25.2s0 0.2 0 0z m0.3-0.8c0 0.6 0.1 0 0 0 0 0.1 0 0 0 0z m-0.1 0.2c0 0.6 0.1 0 0 0 0 0.1 0 0 0 0z m-0.1 0.3c-0.2 0.6 0.1 0 0 0 0 0.1 0 0 0 0z m0 0"  horiz-adv-x="1024" />

    
    <glyph glyph-name="zhinanzhen" unicode="&#58964;" d="M925.9 558.4c-22.6 53.3-54.8 101.2-96 142.3-41.1 41.1-89 73.4-142.3 96-55.2 23.4-113.9 35.2-174.3 35.2S394.3 820.1 339 796.7c-53.3-22.6-101.2-54.8-142.3-96-41.1-41.1-73.4-89-96-142.3-23.4-55.2-35.2-113.9-35.2-174.3 0-60.4 11.8-119.1 35.2-174.3 22.6-53.3 54.8-101.2 96-142.3 41.1-41.1 89-73.4 142.3-96 55.2-23.4 113.9-35.2 174.3-35.2s119.1 11.8 174.3 35.2c53.3 22.6 101.2 54.8 142.3 96 41.1 41.1 73.4 89 96 142.3 23.4 55.2 35.2 113.9 35.2 174.3 0 60.4-11.8 119.1-35.2 174.3zM513.3 17.2c-202.3 0-366.9 164.6-366.9 366.9S311 751 513.3 751c202.3 0 366.9-164.6 366.9-366.9S715.7 17.2 513.3 17.2zM288.6 610.1l132.9-321.3 316.6-130.7-124.6 322.5-324.9 129.5z m224.7-267.5c-22.9 0-41.5 18.6-41.5 41.5s18.6 41.5 41.5 41.5 41.5-18.6 41.5-41.5-18.5-41.5-41.5-41.5z"  horiz-adv-x="1024" />

    
    <glyph glyph-name="plus_y" unicode="&#58965;" d="M926.3 558.1c-22.6 53.3-54.8 101.2-96 142.3-41.1 41.1-89 73.4-142.3 96-55.2 23.4-113.9 35.2-174.3 35.2S394.6 819.8 339.3 796.4c-53.3-22.6-101.2-54.8-142.3-96-41.1-41.1-73.4-89-96-142.3-23.4-55.2-35.2-113.9-35.2-174.3 0-60.4 11.8-119.1 35.2-174.3 22.6-53.3 54.8-101.2 96-142.3 41.1-41.1 89-73.4 142.3-96 55.2-23.4 113.9-35.2 174.3-35.2s119.1 11.8 174.3 35.2c53.3 22.6 101.2 54.8 142.3 96 41.1 41.1 73.4 89 96 142.3 23.4 55.2 35.2 113.9 35.2 174.3 0.1 60.4-11.8 119.1-35.1 174.3zM513.7 16.899999999999977c-202.3 0-366.9 164.6-366.9 366.9s164.6 366.9 366.9 366.9c202.3 0 366.9-164.6 366.9-366.9S716 16.899999999999977 513.7 16.899999999999977zM695.7 426.8h-139v139c0 23.6-19.3 43-43 43-23.6 0-43-19.3-43-43v-139h-139c-23.6 0-43-19.3-43-43s19.3-43 43-43h139v-139c0-23.7 19.3-43 43-43 23.6 0 43 19.3 43 43v139h139c23.6 0 43 19.3 43 43s-19.4 43-43 43z"  horiz-adv-x="1024" />

    
    <glyph glyph-name="delete_y" unicode="&#58966;" d="M926.3 558.1c-22.6 53.3-54.8 101.2-96 142.3-41.1 41.1-89 73.4-142.3 96-55.2 23.4-113.9 35.2-174.3 35.2S394.6 819.8 339.3 796.4c-53.3-22.6-101.2-54.8-142.3-96-41.1-41.1-73.4-89-96-142.3-23.4-55.2-35.2-113.9-35.2-174.3 0-60.4 11.8-119.1 35.2-174.3 22.6-53.3 54.8-101.2 96-142.3 41.1-41.1 89-73.4 142.3-96 55.2-23.4 113.9-35.2 174.3-35.2s119.1 11.8 174.3 35.2c53.3 22.6 101.2 54.8 142.3 96 41.1 41.1 73.4 89 96 142.3 23.4 55.2 35.2 113.9 35.2 174.3 0.1 60.4-11.8 119.1-35.1 174.3zM513.7 16.899999999999977c-202.3 0-366.9 164.6-366.9 366.9s164.6 366.9 366.9 366.9c202.3 0 366.9-164.6 366.9-366.9S716 16.899999999999977 513.7 16.899999999999977zM697.9 566.9c-15.6 15.6-41 15.6-56.6 0L513 438.6 384.7 566.9c-15.6 15.6-41 15.6-56.6 0-15.6-15.6-15.6-41 0-56.6L456.4 382 328.1 253.70000000000005c-15.6-15.6-15.6-41 0-56.6 15.6-15.6 41-15.6 56.6 0L513 325.4l128.3-128.3c15.6-15.6 41-15.6 56.6 0 15.6 15.6 15.6 41 0 56.6L569.6 382l128.3 128.3c15.6 15.6 15.6 41.1 0 56.6z"  horiz-adv-x="1024" />

    
    <glyph glyph-name="minus_y" unicode="&#58967;" d="M926.3 558.1c-22.6 53.3-54.8 101.2-96 142.3-41.1 41.1-89 73.4-142.3 96-55.2 23.4-113.9 35.2-174.3 35.2S394.6 819.8 339.3 796.4c-53.3-22.6-101.2-54.8-142.3-96-41.1-41.1-73.4-89-96-142.3-23.4-55.2-35.2-113.9-35.2-174.3 0-60.4 11.8-119.1 35.2-174.3 22.6-53.3 54.8-101.2 96-142.3 41.1-41.1 89-73.4 142.3-96 55.2-23.4 113.9-35.2 174.3-35.2s119.1 11.8 174.3 35.2c53.3 22.6 101.2 54.8 142.3 96 41.1 41.1 73.4 89 96 142.3 23.4 55.2 35.2 113.9 35.2 174.3 0.1 60.4-11.8 119.1-35.1 174.3zM513.7 16.899999999999977c-202.3 0-366.9 164.6-366.9 366.9s164.6 366.9 366.9 366.9c202.3 0 366.9-164.6 366.9-366.9S716 16.899999999999977 513.7 16.899999999999977zM695.7 340.29999999999995c23.6 0 43 19.3 43 43 0 23.6-19.3 43-43 43l-364 0.5c-23.6 0-43-19.3-43-43s19.3-43 43-43l364-0.5z"  horiz-adv-x="1024" />

    
    <glyph glyph-name="ok_y" unicode="&#58968;" d="M926.3 558.1c-22.6 53.3-54.8 101.2-96 142.3-41.1 41.1-89 73.4-142.3 96-55.2 23.4-113.9 35.2-174.3 35.2S394.6 819.8 339.3 796.4c-53.3-22.6-101.2-54.8-142.3-96-41.1-41.1-73.4-89-96-142.3-23.4-55.2-35.2-113.9-35.2-174.3 0-60.4 11.8-119.1 35.2-174.3 22.6-53.3 54.8-101.2 96-142.3 41.1-41.1 89-73.4 142.3-96 55.2-23.4 113.9-35.2 174.3-35.2s119.1 11.8 174.3 35.2c53.3 22.6 101.2 54.8 142.3 96 41.1 41.1 73.4 89 96 142.3 23.4 55.2 35.2 113.9 35.2 174.3 0.1 60.4-11.8 119.1-35.1 174.3zM513.7 16.899999999999977c-202.3 0-366.9 164.6-366.9 366.9s164.6 366.9 366.9 366.9c202.3 0 366.9-164.6 366.9-366.9S716 16.899999999999977 513.7 16.899999999999977zM715.6 524.4c-15.7 15.7-41.4 15.7-57 0l-196-196-95.9 95.9c-15.7 15.7-41.4 15.7-57 0-15.7-15.7-15.7-41.4 0-57l124.5-124.5c15.7-15.7 41.4-15.7 57 0l224.5 224.5c15.6 15.7 15.6 41.4-0.1 57.1z"  horiz-adv-x="1024" />

    
    <glyph glyph-name="jinzhi" unicode="&#58969;" d="M926.3 558.1c-22.6 53.3-54.8 101.2-96 142.3-41.1 41.1-89 73.4-142.3 96-55.2 23.4-113.9 35.2-174.3 35.2S394.6 819.8 339.3 796.4c-53.3-22.6-101.2-54.8-142.3-96-41.1-41.1-73.4-89-96-142.3-23.4-55.2-35.2-113.9-35.2-174.3 0-60.4 11.8-119.1 35.2-174.3 22.6-53.3 54.8-101.2 96-142.3 41.1-41.1 89-73.4 142.3-96 55.2-23.4 113.9-35.2 174.3-35.2s119.1 11.8 174.3 35.2c53.3 22.6 101.2 54.8 142.3 96 41.1 41.1 73.4 89 96 142.3 23.4 55.2 35.2 113.9 35.2 174.3 0.1 60.4-11.8 119.1-35.1 174.3zM513.7 16.9c-202.3 0-366.9 164.6-366.9 366.9 0 86.2 29.9 165.5 79.7 228.1l515.3-515.3c-62.7-49.9-142-79.7-228.1-79.7z m284.9 136L282.8 668.8c63.1 51.2 143.5 81.9 230.9 81.9 202.3 0 366.9-164.6 366.9-366.9 0-87.4-30.7-167.8-82-230.9z"  horiz-adv-x="1024" />

    
    <glyph glyph-name="download_y" unicode="&#58970;" d="M925.6 558.1c-22.6 53.3-54.8 101.2-96 142.3-41.1 41.1-89 73.4-142.3 96C632.1 819.8 573.5 831.6 513 831.6S393.9 819.8 338.7 796.4c-53.3-22.6-101.2-54.8-142.3-96-41.1-41.1-73.4-89-96-142.3C77 502.9 65.2 444.2 65.2 383.79999999999995c0-60.4 11.8-119.1 35.2-174.3 22.6-53.3 54.8-101.2 96-142.3 41.1-41.1 89-73.4 142.3-96C393.9-52.200000000000045 452.6-64 513-64s119.1 11.8 174.3 35.2c53.3 22.6 101.2 54.8 142.3 96 41.1 41.1 73.4 89 96 142.3 23.4 55.2 35.2 113.9 35.2 174.3 0 60.4-11.8 119.1-35.2 174.3zM513 16.899999999999977c-202.3 0-366.9 164.6-366.9 366.9S310.7 750.7 513 750.7c202.3 0 366.9-164.6 366.9-366.9S715.4 16.899999999999977 513 16.899999999999977zM664.7 375.20000000000005c-17.6 15.6-44.7 13.9-60.3-3.7l-49.2-55.7V527.5c0 1.3-0.1 2.7-0.2 4 0.1 1.4 0.2 2.9 0.2 4.4v30.3c0 23.2-19 42.2-42.2 42.2-23.2 0-42.2-19-42.2-42.2v-30.3c0-1.6 0.1-3.1 0.3-4.7-0.1-1.2-0.2-2.4-0.2-3.7v-211.6l-49.2 55.6c-15.6 17.6-42.7 19.3-60.3 3.7-17.6-15.6-19.3-42.7-3.7-60.3L481 175.5c4.1-4.7 9-8.2 14.4-10.6 0.1 0 0.2-0.1 0.3-0.1l1.5-0.6c0.2-0.1 0.4-0.2 0.6-0.2 0.4-0.2 0.8-0.3 1.2-0.4 0.3-0.1 0.6-0.2 0.8-0.3 0.3-0.1 0.7-0.2 1-0.3s0.7-0.2 1-0.3 0.6-0.2 0.9-0.2c0.4-0.1 0.8-0.2 1.1-0.3 0.3-0.1 0.6-0.1 0.8-0.2 0.4-0.1 0.8-0.2 1.2-0.2 0.3 0 0.5-0.1 0.8-0.1 0.4-0.1 0.8-0.1 1.2-0.2 0.3 0 0.6-0.1 0.8-0.1 0.4 0 0.8-0.1 1.2-0.1 0.3 0 0.6 0 0.9-0.1h4.2c0.3 0 0.6 0 0.9 0.1 0.4 0 0.8 0.1 1.2 0.1 0.3 0 0.6 0.1 0.8 0.1 0.4 0 0.8 0.1 1.2 0.2 0.3 0 0.5 0.1 0.8 0.1 0.4 0.1 0.8 0.1 1.2 0.2 0.3 0.1 0.6 0.1 0.8 0.2 0.4 0.1 0.8 0.2 1.1 0.3s0.6 0.1 0.9 0.2c0.3 0.1 0.7 0.2 1 0.3s0.7 0.2 1 0.3 0.6 0.2 0.8 0.3c0.4 0.1 0.8 0.3 1.2 0.4 0.2 0.1 0.4 0.2 0.6 0.2l1.5 0.6c0.1 0 0.2 0.1 0.3 0.1 5.3 2.4 10.3 5.9 14.4 10.6L668 314.9c16 17.6 14.3 44.8-3.3 60.3z"  horiz-adv-x="1024" />

    
    <glyph glyph-name="upload_y" unicode="&#58971;" d="M925.6 558.6c-22.6 53.3-54.8 101.2-96 142.3-41.1 41.1-89 73.4-142.3 96C632.1 820.2 573.5 832.1 513 832.1S393.9 820.2 338.7 796.9c-53.3-22.6-101.2-54.8-142.3-96-41.1-41.1-73.4-89-96-142.3C77 503.4 65.2 444.7 65.2 384.3c0-60.4 11.8-119.1 35.2-174.3 22.6-53.3 54.8-101.2 96-142.3 41.1-41.1 89-73.4 142.3-96 55.2-23.4 113.9-35.2 174.3-35.2s119.1 11.8 174.3 35.2c53.3 22.6 101.2 54.8 142.3 96 41.1 41.1 73.4 89 96 142.3 23.4 55.2 35.2 113.9 35.2 174.3 0 60.4-11.8 119.1-35.2 174.3zM513 17.399999999999977c-202.3 0-366.9 164.6-366.9 366.9S310.7 751.2 513 751.2c202.3 0 366.9-164.6 366.9-366.9S715.4 17.399999999999977 513 17.399999999999977zM545 593.6c-4.1 4.7-9 8.2-14.4 10.6-0.1 0-0.2 0.1-0.3 0.1l-1.5 0.6c-0.2 0.1-0.4 0.2-0.6 0.2-0.4 0.2-0.8 0.3-1.2 0.4-0.3 0.1-0.6 0.2-0.8 0.3-0.3 0.1-0.7 0.2-1 0.3s-0.7 0.2-1 0.3-0.6 0.2-0.9 0.2c-0.4 0.1-0.8 0.2-1.1 0.3-0.3 0.1-0.6 0.1-0.8 0.2-0.4 0.1-0.8 0.2-1.2 0.2-0.3 0-0.5 0.1-0.8 0.1-0.4 0.1-0.8 0.1-1.2 0.2-0.3 0-0.6 0.1-0.8 0.1-0.4 0-0.8 0.1-1.2 0.1-0.3 0-0.6 0-0.9 0.1h-4.2c-0.3 0-0.6 0-0.9-0.1-0.4 0-0.8-0.1-1.2-0.1-0.3 0-0.6-0.1-0.8-0.1-0.4 0-0.8-0.1-1.2-0.2-0.3 0-0.5-0.1-0.8-0.1-0.4-0.1-0.8-0.1-1.2-0.2-0.3-0.1-0.6-0.1-0.8-0.2-0.4-0.1-0.8-0.2-1.1-0.3s-0.6-0.1-0.9-0.2c-0.3-0.1-0.7-0.2-1-0.3s-0.7-0.2-1-0.3-0.6-0.2-0.8-0.3c-0.4-0.1-0.8-0.3-1.2-0.4-0.2-0.1-0.4-0.2-0.6-0.2l-1.5-0.6c-0.1 0-0.2-0.1-0.3-0.1-5.3-2.4-10.3-5.9-14.4-10.6L358.1 454.2c-16-17.6-14.3-44.8 3.3-60.3 17.6-15.6 44.7-13.9 60.3 3.7l49.2 55.7v-211.7c0-1.3 0.1-2.7 0.2-4-0.1-1.4-0.2-2.9-0.2-4.4v-30.3c0-23.2 19-42.2 42.2-42.2 23.2 0 42.2 19 42.2 42.2v30.3c0 1.6-0.1 3.1-0.3 4.7 0.1 1.2 0.2 2.4 0.2 3.7V453.2l49.2-55.6c15.6-17.6 42.7-19.3 60.3-3.7 17.6 15.6 19.3 42.7 3.7 60.3L545 593.6z"  horiz-adv-x="1024" />

    
    <glyph glyph-name="left_y" unicode="&#58972;" d="M925.6 558.1c-22.6 53.3-54.8 101.2-96 142.3-41.1 41.1-89 73.4-142.3 96C632.1 819.8 573.5 831.6 513 831.6S393.9 819.8 338.7 796.4c-53.3-22.6-101.2-54.8-142.3-96-41.1-41.1-73.4-89-96-142.3C77 502.9 65.2 444.2 65.2 383.79999999999995c0-60.4 11.8-119.1 35.2-174.3 22.6-53.3 54.8-101.2 96-142.3 41.1-41.1 89-73.4 142.3-96C393.9-52.200000000000045 452.6-64 513-64s119.1 11.8 174.3 35.2c53.3 22.6 101.2 54.8 142.3 96 41.1 41.1 73.4 89 96 142.3 23.4 55.2 35.2 113.9 35.2 174.3 0 60.4-11.8 119.1-35.2 174.3zM513 16.899999999999977c-202.3 0-366.9 164.6-366.9 366.9S310.7 750.7 513 750.7c202.3 0 366.9-164.6 366.9-366.9S715.4 16.899999999999977 513 16.899999999999977zM694.4 425.3h-30.3c-1.6 0-3.1-0.1-4.7-0.3-1.2 0.1-2.4 0.2-3.7 0.2H444.2l55.6 49.2c17.6 15.6 19.3 42.7 3.7 60.3-15.6 17.6-42.7 19.3-60.3 3.7L303.8 415.1c-4.7-4.1-8.2-9-10.6-14.4 0-0.1-0.1-0.2-0.1-0.3l-0.6-1.5c-0.1-0.2-0.2-0.4-0.2-0.6-0.2-0.4-0.3-0.8-0.4-1.2-0.1-0.3-0.2-0.6-0.3-0.8-0.1-0.3-0.2-0.7-0.3-1s-0.2-0.7-0.3-1-0.2-0.6-0.2-0.9c-0.1-0.4-0.2-0.8-0.3-1.1-0.1-0.3-0.1-0.6-0.2-0.8-0.1-0.4-0.2-0.8-0.2-1.2 0-0.3-0.1-0.5-0.1-0.8-0.1-0.4-0.1-0.8-0.2-1.2 0-0.3-0.1-0.6-0.1-0.8 0-0.4-0.1-0.8-0.1-1.2 0-0.3 0-0.6-0.1-0.9v-4.2c0-0.3 0-0.6 0.1-0.9 0-0.4 0.1-0.8 0.1-1.2 0-0.3 0.1-0.6 0.1-0.8 0-0.4 0.1-0.8 0.2-1.2 0-0.3 0.1-0.5 0.1-0.8 0.1-0.4 0.1-0.8 0.2-1.2 0.1-0.3 0.1-0.6 0.2-0.8 0.1-0.4 0.2-0.8 0.3-1.1s0.1-0.6 0.2-0.9c0.1-0.3 0.2-0.7 0.3-1s0.2-0.7 0.3-1 0.2-0.6 0.3-0.8c0.1-0.4 0.3-0.8 0.4-1.2 0.1-0.2 0.2-0.4 0.2-0.6l0.6-1.5c0-0.1 0.1-0.2 0.1-0.3 2.4-5.3 5.9-10.3 10.6-14.4l139.4-123.3c17.6-16 44.8-14.3 60.3 3.3 15.6 17.6 13.9 44.7-3.7 60.3L444.1 341h211.7c1.3 0 2.7 0.1 4 0.2 1.4-0.1 2.9-0.2 4.4-0.2h30.3c23.2 0 42.2 19 42.2 42.2-0.1 23.1-19.1 42.1-42.3 42.1z"  horiz-adv-x="1024" />

    
    <glyph glyph-name="right_y" unicode="&#58973;" d="M925.6 558.1c-22.6 53.3-54.8 101.2-96 142.3-41.1 41.1-89 73.4-142.3 96C632.1 819.8 573.5 831.6 513 831.6S393.9 819.8 338.7 796.4c-53.3-22.6-101.2-54.8-142.3-96-41.1-41.1-73.4-89-96-142.3C77 502.9 65.2 444.2 65.2 383.79999999999995c0-60.4 11.8-119.1 35.2-174.3 22.6-53.3 54.8-101.2 96-142.3 41.1-41.1 89-73.4 142.3-96C393.9-52.200000000000045 452.6-64 513-64s119.1 11.8 174.3 35.2c53.3 22.6 101.2 54.8 142.3 96 41.1 41.1 73.4 89 96 142.3 23.4 55.2 35.2 113.9 35.2 174.3 0 60.4-11.8 119.1-35.2 174.3zM513 16.899999999999977c-202.3 0-366.9 164.6-366.9 366.9S310.7 750.7 513 750.7c202.3 0 366.9-164.6 366.9-366.9S715.4 16.899999999999977 513 16.899999999999977zM736.4 387.1c0 0.3-0.1 0.6-0.1 0.8 0 0.4-0.1 0.8-0.2 1.2 0 0.3-0.1 0.5-0.1 0.8-0.1 0.4-0.1 0.8-0.2 1.2-0.1 0.3-0.1 0.6-0.2 0.8-0.1 0.4-0.2 0.8-0.3 1.1s-0.1 0.6-0.2 0.9c-0.1 0.3-0.2 0.7-0.3 1s-0.2 0.7-0.3 1-0.2 0.6-0.3 0.8c-0.1 0.4-0.3 0.8-0.4 1.2-0.1 0.2-0.2 0.4-0.2 0.6l-0.6 1.5c0 0.1-0.1 0.2-0.1 0.3-2.4 5.3-5.9 10.3-10.6 14.4L582.9 538c-17.6 16-44.8 14.3-60.3-3.3-15.6-17.6-13.9-44.7 3.7-60.3l55.7-49.2H370.3c-1.3 0-2.7-0.1-4-0.2-1.4 0.1-2.9 0.2-4.4 0.2h-30.3c-23.2 0-42.2-19-42.2-42.2 0-23.2 19-42.2 42.2-42.2H362c1.6 0 3.1 0.1 4.7 0.3 1.2-0.1 2.4-0.2 3.7-0.2H582l-55.6-49.2c-17.6-15.6-19.3-42.7-3.7-60.3 15.6-17.6 42.7-19.3 60.3-3.7L722.4 351c4.7 4.1 8.2 9 10.6 14.4 0 0.1 0.1 0.2 0.1 0.3l0.6 1.5c0.1 0.2 0.2 0.4 0.2 0.6 0.2 0.4 0.3 0.8 0.4 1.2 0.1 0.3 0.2 0.6 0.3 0.8 0.1 0.3 0.2 0.7 0.3 1s0.2 0.7 0.3 1 0.2 0.6 0.2 0.9c0.1 0.4 0.2 0.8 0.3 1.1 0.1 0.3 0.1 0.6 0.2 0.8 0.1 0.4 0.2 0.8 0.2 1.2 0 0.3 0.1 0.5 0.1 0.8 0.1 0.4 0.1 0.8 0.2 1.2 0 0.3 0.1 0.6 0.1 0.8 0 0.4 0.1 0.8 0.1 1.2 0 0.3 0 0.6 0.1 0.9v1.1 1 1 1.1c0 0.3 0 0.6-0.1 0.9-0.1 0.5-0.2 0.9-0.2 1.3z"  horiz-adv-x="1024" />

    
    <glyph glyph-name="more_y" unicode="&#58974;" d="M925.6 558.1c-22.6 53.3-54.8 101.2-96 142.3-41.1 41.1-89 73.4-142.3 96C632.1 819.8 573.5 831.6 513 831.6S393.9 819.8 338.7 796.4c-53.3-22.6-101.2-54.8-142.3-96-41.1-41.1-73.4-89-96-142.3C77 502.9 65.2 444.2 65.2 383.79999999999995c0-60.4 11.8-119.1 35.2-174.3 22.6-53.3 54.8-101.2 96-142.3 41.1-41.1 89-73.4 142.3-96C393.9-52.200000000000045 452.6-64 513-64s119.1 11.8 174.3 35.2c35.9 15.2 69.3 34.8 99.8 58.5l-0.1 0.1c9.1 7.4 14.8 18.6 14.8 31.2 0 22.3-18 40.3-40.3 40.3-9.2 0-17.7-3.1-24.5-8.3l-0.2 0.3c-62-47.9-139.7-76.4-223.9-76.4-202.3 0-366.9 164.6-366.9 366.9s164.7 366.9 367 366.9 366.9-164.6 366.9-366.9c0-66.2-17.6-128.3-48.4-182l0.4-0.2c-4.4-6.5-7-14.2-7-22.6 0-22.3 18-40.3 40.3-40.3 16 0 29.8 9.3 36.3 22.8l0.2-0.1c8.9 15.5 16.8 31.5 23.8 48.1 23.4 55.2 35.2 113.9 35.2 174.3 0.1 60.4-11.7 119.1-35.1 174.3zM419.9 189.60000000000002c15.8-14.8 41.6-14.8 57.3 0l177.3 166.9c15.8 14.8 15.8 39.1 0 54L477.2 577.4c-15.8 14.8-41.6 14.8-57.3 0-15.8-14.8-15.8-39.1 0-54l148.6-139.9-148.6-139.9c-15.8-14.8-15.8-39.1 0-54z"  horiz-adv-x="1024" />

    
    <glyph glyph-name="back_y" unicode="&#58975;" d="M548.5 206h0.1c3.6 0 36.1 0.8 69.1 19.4 20.5 11.6 36.9 27.5 48.7 47.3 14.1 23.6 21.2 52.3 21.2 85.1 0 32.7-6.9 61.3-20.7 85-11.5 19.9-27.5 36-47.5 47.9-32.4 19.3-64.5 20.6-68 20.7H440.9v74.1L331.3 477.3 441 369.9v71.4h108.9c1.9-0.1 18.2-1.6 33.9-10.9 22.8-13.6 33.9-37.4 33.9-72.7 0-34.1-10.6-57.1-32.5-70.3-17.1-10.3-35.4-11.3-37.2-11.4H404.3v0.1h-10.7v-0.1h-0.3c-19.3 0-35-15.7-35-35s15.7-35 35-35H548.5zM925.6 558.1c-22.6 53.3-54.8 101.2-96 142.3-41.1 41.1-89 73.4-142.3 96C632.1 819.8 573.5 831.6 513 831.6S393.9 819.8 338.7 796.4c-53.3-22.6-101.2-54.8-142.3-96-41.1-41.1-73.4-89-96-142.3C77 502.9 65.2 444.2 65.2 383.79999999999995c0-60.4 11.8-119.1 35.2-174.3 22.6-53.3 54.8-101.2 96-142.3 41.1-41.1 89-73.4 142.3-96C393.9-52.200000000000045 452.6-64 513-64s119.1 11.8 174.3 35.2c35.9 15.2 69.3 34.8 99.8 58.5l-0.1 0.1c9.1 7.4 14.8 18.6 14.8 31.2 0 22.3-18 40.3-40.3 40.3-9.2 0-17.7-3.1-24.5-8.3l-0.2 0.3c-62-47.9-139.7-76.4-223.9-76.4-202.3 0-366.9 164.6-366.9 366.9s164.7 366.9 367 366.9 366.9-164.6 366.9-366.9c0-66.2-17.6-128.3-48.4-182l0.4-0.2c-4.4-6.5-7-14.2-7-22.6 0-22.3 18-40.3 40.3-40.3 16 0 29.8 9.3 36.3 22.8l0.2-0.1c8.9 15.5 16.8 31.5 23.8 48.1 23.4 55.2 35.2 113.9 35.2 174.3 0.1 60.4-11.7 119.1-35.1 174.3z"  horiz-adv-x="1024" />

    
    <glyph glyph-name="shuaxin" unicode="&#58976;" d="M943.8 411.9c-17.5 13.7-42.8 10.7-56.6-6.8-5.7-7.3-8.5-15.8-8.6-24.4h-0.4c-0.6-78.3-26.1-157-78-223.3-124.9-159.2-356-187.1-515.2-62.3-31.7 24.9-58.2 54-79.3 85.9h77.1c22.4 0 40.7 18.3 40.7 40.7v3c0 22.4-18.3 40.7-40.7 40.7H105.5c-22.4 0-40.7-18.3-40.7-40.7v-177.3c0-22.4 18.3-40.7 40.7-40.7h3c22.4 0 40.7 18.3 40.7 40.7v73.1c24.2-33.3 53-63.1 86-89 47.6-37.3 101-64.2 158.9-79.9 55.9-15.2 113.5-19.3 171.2-12.3 57.7 7 112.7 24.7 163.3 52.8 52.5 29 98 67.9 135.3 115.4 37.3 47.6 64.2 101 79.9 158.9 10.2 37.6 15.4 76 15.6 114.6h-0.1c-0.3 11.6-5.5 23.1-15.5 30.9zM918.7 760.8h-3c-22.4 0-40.7-18.3-40.7-40.7V647c-24.2 33.3-53 63.1-86 89-47.6 37.3-101 64.2-158.9 79.9-55.9 15.2-113.5 19.3-171.2 12.3-57.7-7-112.7-24.7-163.3-52.8-52.5-29-98-67.9-135.3-115.4-37.3-47.5-64.2-101-79.9-158.8-10.2-37.6-15.4-76-15.6-114.6h0.1c0.2-11.7 5.5-23.2 15.4-30.9 17.5-13.7 42.8-10.7 56.6 6.8 5.7 7.3 8.5 15.8 8.6 24.4h0.4c0.6 78.3 26.1 157 78 223.3 124.9 159.2 356 187.1 515.2 62.3 31.7-24.9 58.2-54 79.3-85.9h-77.1c-22.4 0-40.7-18.3-40.7-40.7v-3c0-22.4 18.3-40.7 40.7-40.7h177.3c22.4 0 40.7 18.3 40.7 40.7V720.2c0.1 22.3-18.2 40.6-40.6 40.6z"  horiz-adv-x="1024" />

    
    <glyph glyph-name="zhongzhi" unicode="&#58977;" d="M960.8 381c-0.2 11.7-5.5 23.2-15.4 30.9-17.5 13.7-42.8 10.7-56.6-6.8-5.7-7.3-8.5-15.8-8.6-24.4h-0.4c-0.6-78.3-26.1-157-78-223.3-124.9-159.2-356-187.1-515.2-62.3S99.4 451 224.3 610.2c124.9 159.2 356 187.1 515.2 62.3 29.6-23.2 54.6-50.1 75-79.5H741c-22.4 0-40.7-18.3-40.7-40.7v-3c0-22.4 18.3-40.7 40.7-40.7h177.3c22.4 0 40.7 18.3 40.7 40.7V726.7c0 22.4-18.3 40.7-40.7 40.7h-3c-22.4 0-40.7-18.3-40.7-40.7v-78.5c-24.1 32.9-52.6 62.4-85.2 88-47.6 37.3-101 64.2-158.9 79.9C574.6 831.2 517 835.3 459.3 828.4c-57.7-7-112.7-24.7-163.3-52.8-52.5-29-98-67.9-135.3-115.4-37.3-47.6-64.2-101-79.9-158.9-15.2-55.9-19.3-113.5-12.3-171.2 7-57.7 24.7-112.7 52.8-163.3 29-52.5 67.9-98 115.4-135.3 47.6-37.3 101-64.2 158.9-79.9 55.9-15.2 113.5-19.3 171.2-12.3 57.7 7 112.7 24.7 163.3 52.8 52.5 29 98 67.9 135.3 115.4 37.3 47.6 64.2 101 79.9 158.9 10.2 37.5 15.4 75.9 15.5 114.6z"  horiz-adv-x="1024" />

    
    <glyph glyph-name="yonghu" unicode="&#58978;" d="M925.2 557.8c-22.6 53.3-54.8 101.2-96 142.3-41.1 41.1-89 73.4-142.3 96C631.7 819.4 573 831.3 512.6 831.3S393.5 819.4 338.3 796.1c-53.3-22.6-101.2-54.8-142.3-96-41.1-41.1-73.4-89-96-142.3-23.4-55.2-35.2-113.9-35.2-174.3 0-60.4 11.8-119.1 35.2-174.3 22.6-53.3 54.8-101.2 96-142.3 41.1-41.1 89-73.4 142.3-96 55.2-23.4 113.9-35.2 174.3-35.2s119.1 11.8 174.3 35.2c35.9 15.2 69.3 34.8 99.8 58.5l-0.1 0.1c9.1 7.4 14.8 18.6 14.8 31.2 0 22.3-18 40.3-40.3 40.3-9.2 0-17.7-3.1-24.5-8.3l-0.2 0.3c-62-47.9-139.7-76.4-223.9-76.4-202.3 0-366.9 164.6-366.9 366.9s164.6 366.9 366.9 366.9c202.3 0 366.9-164.6 366.9-366.9 0-66.2-17.6-128.3-48.4-182l0.4-0.2c-4.4-6.5-7-14.2-7-22.6 0-22.3 18-40.3 40.3-40.3 16 0 29.8 9.3 36.3 22.8l0.2-0.1c8.9 15.5 16.8 31.5 23.8 48.1 23.4 55.2 35.2 113.9 35.2 174.3 0.2 60.4-11.6 119.1-35 174.3zM695.1 290.5c-23.1 33.3-54.5 59.4-91.2 76 36 28.1 57.2 71 57.2 117 0 81.8-66.6 148.4-148.4 148.4-81.8 0-148.4-66.6-148.4-148.4 0-46 21.2-88.9 57.2-117-36.7-16.6-68.1-42.7-91.2-76-25.8-37.2-39.4-80.8-39.4-126.3v-0.6c0-15.8 12.8-28.6 28.6-28.6 15.7 0 28.6 12.8 28.6 28.6 0 0.5 0 0.8-0.1 1.1 0.3 90.7 74.1 164.4 164.8 164.4 90.9 0 164.8-73.9 164.8-164.8 0-0.4 0-9.7 4.3-16.2 5.1-7.8 14.8-13 24.3-13 15.7 0 28.4 12.8 28.4 28.4v0.3 0.5c-0.1 45.4-13.7 89-39.5 126.2zM512.6 393.2c-49.8 0-90.3 40.5-90.3 90.3s40.5 90.3 90.3 90.3 90.3-40.5 90.3-90.3-40.5-90.3-90.3-90.3z"  horiz-adv-x="1024" />

    
    <glyph glyph-name="user04" unicode="&#58979;" d="M954 41c-23.5 167.9-188.3 179.5-188.3 179.5l-156.3 66.8V370c30.5 15.5 43 104 43 104 35-1.5 30 66 30.5 94s-14.5 22.5-14.5 22.5c8 53.5 4.5 94.5 4.5 94.5-21 132-160.5 133.5-160.5 133.5l-0.2-15-0.2 15S372.6 817 351.6 685c0 0-3.5-41 4.5-94.5 0 0-15 5.5-14.5-22.5s-4.5-95.5 30.5-94c0 0 12.5-88.5 43-104v-82.8l-156.3-66.8S94 208.79999999999995 70.5 40.89999999999998c0 0-27.5-96.9 32.4-96.9h818.7c60 0.1 32.4 97 32.4 97z"  horiz-adv-x="1024" />

    
    <glyph glyph-name="usernew04" unicode="&#58980;" d="M949.2 78.79999999999995c0 22.9-18.8 41.7-41.7 41.7h-46v46c0 22.9-18.8 41.7-41.7 41.7-22.9 0-41.7-18.8-41.7-41.7v-46h-46c-22.9 0-41.7-18.7-41.7-41.7 0-22.9 18.8-41.7 41.7-41.7h46v-46c0-22.9 18.7-41.7 41.7-41.7 22.9 0 41.7 18.8 41.7 41.7v46h46c22.9 0.1 41.7 18.8 41.7 41.7zM650.2 79.60000000000002c0 46.3 37.7 84.3 84 84.7 0.2 23 9.7 43.9 24.9 59.1l-149.6 63.9V370c30.5 15.5 43 104 43 104 35-1.5 30 66 30.5 94s-14.5 22.5-14.5 22.5c8 53.5 4.5 94.5 4.5 94.5C651.9 817 512.4 818.5 512.4 818.5l-0.2-15-0.2 15S372.6 817 351.6 685c0 0-3.5-41 4.5-94.5 0 0-15 5.5-14.5-22.5s-4.5-95.5 30.5-94c0 0 12.5-88.5 43-104v-82.8l-156.3-66.8S94 208.79999999999995 70.5 40.89999999999998c0 0-27.5-96.9 32.4-96.9h648.8c-10.9 14.1-17.4 31.7-17.6 50.8-46.2 0.5-83.9 38.4-83.9 84.8zM958.9 16.299999999999955c-14.8-13.1-34.2-21.2-55.4-21.4-0.2-19.1-6.7-36.7-17.6-50.8h35.7c40.2 0 41.1 43.5 37.3 72.2z"  horiz-adv-x="1024" />

    
    <glyph glyph-name="userdelete04" unicode="&#58981;" d="M689.5 78.79999999999995c0-22.9 18.8-41.7 41.7-41.7h175.3c22.9 0 41.7 18.8 41.7 41.7 0 22.9-18.8 41.7-41.7 41.7H731.2c-22.9 0-41.7-18.7-41.7-41.7zM958.9 16.299999999999955c-15-13.3-34.6-21.4-56.1-21.4h-168c-46.6 0-84.7 38.1-84.7 84.7s38.1 84.7 84.7 84.7h157.7c-55.5 51.2-126.8 56.3-126.8 56.3l-156.3 66.8V370c30.5 15.5 43 104 43 104 35-1.5 30 66 30.5 94s-14.5 22.5-14.5 22.5c8 53.5 4.5 94.5 4.5 94.5-21 132-160.5 133.5-160.5 133.5l-0.2-15-0.2 15S372.6 817 351.6 685c0 0-3.5-41 4.5-94.5 0 0-15 5.5-14.5-22.5s-4.5-95.5 30.5-94c0 0 12.5-88.5 43-104v-82.8l-156.3-66.8S94 208.79999999999995 70.5 40.89999999999998c0 0-27.5-96.9 32.4-96.9h818.7c40.2 0.1 41.1 43.5 37.3 72.3z"  horiz-adv-x="1024" />

    
    <glyph glyph-name="userok04" unicode="&#58982;" d="M678 28c-32.2 32.2-32.2 84.8 0 117l2.2 2.2c32.2 32.2 84.8 32.2 117 0l48.7 48.7 0.4 0.4c-42.3 21.6-80.5 24.3-80.5 24.3l-156.3 66.8V370c30.5 15.5 43 104 43 104 35-1.5 30 66 30.5 94s-14.5 22.5-14.5 22.5c8 53.5 4.5 94.5 4.5 94.5C651.9 817 512.4 818.5 512.4 818.5l-0.2-15-0.2 15S372.6 817 351.6 685c0 0-3.5-41 4.5-94.5 0 0-15 5.5-14.5-22.5s-4.5-95.5 30.5-94c0 0 12.5-88.5 43-104v-82.8l-156.3-66.8S94 208.79999999999995 70.5 40.89999999999998c0 0-27.5-96.9 32.4-96.9h675.6c-14 3.5-27.3 10.7-38.2 21.6L678 28zM954 41c-0.9 6.3-2 12.5-3.3 18.4l-88-88c-1.1-1.2-2.2-2.4-3.3-3.5l-2.2-2.2c-10.9-10.9-24.2-18.1-38.2-21.6h102.5c60.1 0 32.5 96.9 32.5 96.9zM938.7 105.10000000000002c16.4 16.4 16.4 43.3 0 59.8l-1.9 1.9c-16.4 16.4-43.3 16.4-59.8 0L799.2 89l-25.9 25.9c-16.4 16.4-43.3 16.4-59.8 0l-1.9-1.9c-16.4-16.4-16.4-43.3 0-59.8l55.7-55.7 1.9-1.9c16.4-16.4 43.3-16.4 59.8 0l109.7 109.5z"  horiz-adv-x="1024" />

    
    <glyph glyph-name="usercancel04" unicode="&#58983;" d="M714.3 76.5l-22.9 22.9c-32.9 32.9-32.9 86.8 0 119.8 9.1 9.1 19.8 15.7 31.2 19.8l-113.2 48.3V370c30.5 15.5 43 104 43 104 35-1.5 30 66 30.5 94s-14.5 22.5-14.5 22.5c8 53.5 4.5 94.5 4.5 94.5-21 132-160.5 133.5-160.5 133.5l-0.2-15-0.2 15S372.6 817 351.6 685c0 0-3.5-41 4.5-94.5 0 0-15 5.5-14.5-22.5s-4.5-95.5 30.5-94c0 0 12.5-88.5 43-104v-82.8l-156.3-66.8S94 208.79999999999995 70.5 40.89999999999998c0 0-27.5-96.9 32.4-96.9h579.8c-23.9 33.1-21 79.8 8.7 109.5l22.9 23zM896.1 79.20000000000005l51 51c16.4 16.4 16.4 43.3 0 59.8l-1.9 1.9c-16.4 16.4-43.3 16.4-59.8 0l-51-51-51 51c-16.4 16.4-43.3 16.4-59.8 0l-1.9-1.9c-16.4-16.4-16.4-43.3 0-59.8l51-51-51-51c-16.4-16.4-16.4-43.3 0-59.8l1.9-1.9c16.4-16.4 43.3-16.4 59.8 0l51 51 51-51c16.4-16.4 43.3-16.4 59.8 0l1.9 1.9c16.4 16.4 16.4 43.3 0 59.8l-51 51z"  horiz-adv-x="1024" />

    
    <glyph glyph-name="userprev04" unicode="&#58984;" d="M725.9 47.89999999999998H918c23.3 0 42.3 19 42.3 42.3 0 23.3-19 42.3-42.3 42.3H725.9l31.8 31.8c16.5 16.5 16.5 43.4 0 59.9s-43.4 16.5-59.9 0l-104-104c-16.5-16.5-16.5-43.4 0-59.9l104-104c16.5-16.5 43.4-16.5 59.9 0s16.5 43.4 0 59.9l-31.8 31.7zM794.9 215.29999999999995c-0.1-15.2-5.4-30.3-15.7-42.6h103.5c-30.7 24.8-64.5 36.8-87.8 42.6zM957.9 22.899999999999977c-15-13.1-34.7-21.1-56.1-21.1H779.2c13.8-16.3 18.5-37.8 14.2-57.7h128.3c43.3 0 40.9 50.8 36.2 78.8zM551.9 39.89999999999998c-26.1 26.1-26.1 68.7 0 94.8l124.2 124.2-66.7 28.5V370c30.5 15.5 43 104 43 104 35-1.5 30 66 30.5 94s-14.5 22.5-14.5 22.5c8 53.5 4.5 94.5 4.5 94.5-21 132-160.5 133.5-160.5 133.5l-0.2-15-0.2 15S372.6 817 351.6 685c0 0-3.5-41 4.5-94.5 0 0-15 5.5-14.5-22.5s-4.5-95.5 30.5-94c0 0 12.5-88.5 43-104v-82.8l-156.3-66.8S94 208.79999999999995 70.5 40.89999999999998c0 0-27.5-96.9 32.4-96.9H647.7l-95.8 95.9z"  horiz-adv-x="1024" />

    
    <glyph glyph-name="xiayigeyonghu" unicode="&#58985;" d="M948 60.3c16.5 16.5 16.5 43.4 0 59.9l-104 104c-16.5 16.5-43.4 16.5-59.9 0s-16.5-43.4 0-59.9l31.8-31.8H623.8c-23.3 0-42.3-19-42.3-42.3 0-23.3 19-42.3 42.3-42.3h192.1l-31.8-31.8c-16.5-16.5-16.5-43.4 0-59.9s43.4-16.5 59.9 0l104 104.1zM617.9 1.8c-47 0-85.5 38.5-85.5 85.5s38.5 85.5 85.5 85.5h122.6c-15.2 18-19.4 42.4-12.5 63.9l-118.6 50.6V370c30.5 15.5 43 104 43 104 35-1.5 30 66 30.5 94s-14.5 22.5-14.5 22.5c8 53.5 4.5 94.5 4.5 94.5-21 132-160.5 133.5-160.5 133.5l-0.2-15-0.2 15S372.6 817 351.6 685c0 0-3.5-41 4.5-94.5 0 0-15 5.5-14.5-22.5s-4.5-95.5 30.5-94c0 0 12.5-88.5 43-104v-82.8l-156.3-66.8S94 208.8 70.5 40.9c0 0-27.5-96.9 32.4-96.9H726.3c-4.3 19.9 0.4 41.4 14.2 57.7H617.9zM956.8 28.9L872-55.9h49.6c46.8 0 40.3 58.9 35.2 84.8z"  horiz-adv-x="1024" />

    
    <glyph glyph-name="duoyonghu" unicode="&#58986;" d="M575.2 262l-113.9 48.6v60.3c22.2 11.3 31.3 75.8 31.3 75.8 25.5-1.1 21.8 48.1 22.2 68.5 0.4 20.4-10.6 16.4-10.6 16.4 5.8 39 3.3 68.8 3.3 68.8-15.3 96.2-116.9 97.2-116.9 97.2l-0.1-11-0.1 11s-101.6-1.1-116.9-97.2c0 0-2.5-29.9 3.3-68.8 0 0-10.9 4-10.6-16.4 0.4-20.4-3.3-69.6 22.2-68.5 0 0 9.1-64.5 31.3-75.8v-60.3L206 262S85.9 253.5 68.8 131.2c0 0-20.1-70.6 23.6-70.6H688.8c43.7 0 23.6 70.6 23.6 70.6C695.3 253.5 575.2 262 575.2 262zM952.8 125.2C937.2 237 827.4 244.7 827.4 244.7l-104.1 44.5v55.1c20.3 10.3 28.6 69.3 28.6 69.3 23.3-1 20 44 20.3 62.6 0.3 18.6-9.6 15-9.6 15 5.3 35.6 3 62.9 3 62.9-14 87.9-106.9 88.9-106.9 88.9l-0.1-10-0.1 10s-92.9-1-106.8-88.9c0 0-2.3-27.3 3-62.9 0 0-10 3.7-9.6-15 0.3-18.6-3-63.6 20.3-62.6 0 0 8.3-58.9 28.6-69.3v-55.1l-3.9-1.7c22.7-2.9 136-23.5 153.6-149.8 0 0 17.2-60.7-10.6-77.1h198.1c39.9 0 21.6 64.6 21.6 64.6z"  horiz-adv-x="1024" />

    
    <glyph glyph-name="touxiang" unicode="&#58987;" d="M924.6 559.1c-22.6 53.3-54.8 101.2-96 142.3-41.1 41.1-89 73.4-142.3 96C631.1 820.8 572.5 832.6 512 832.6S392.9 820.8 337.7 797.4c-53.3-22.6-101.2-54.8-142.3-96-41.1-41.1-73.4-89-96-142.3C76 503.9 64.2 445.2 64.2 384.8S76 265.7 99.4 210.5c22.6-53.3 54.8-101.2 96-142.3 41.1-41.1 89-73.4 142.3-96C392.9-51.2 451.6-63 512-63c60.4 0 119.1 11.8 174.3 35.2 53.3 22.6 101.2 54.8 142.3 96 41.1 41.1 73.4 89 96 142.3 23.4 55.2 35.2 113.9 35.2 174.3 0 60.4-11.8 119.1-35.2 174.3zM788.2 143.6C750.6 166.4 713 169 713 169l-123.7 52.4v65c24.1 12.2 34 81.7 34 81.7C651 367 647 420 647.4 442c0.4 22-11.5 17.7-11.5 17.7 6.3 42 3.6 74.2 3.6 74.2-16.6 103.7-126.9 104.9-126.9 104.9l-0.1-11.8-0.1 11.8s-110.3-1.2-126.9-104.9c0 0-2.8-32.2 3.6-74.2 0 0-11.9 4.3-11.5-17.7s-3.6-75 24.1-73.8c0 0 9.9-69.5 34-81.7v-65L312 169s-38-2.7-75.8-25.9c-56.6 64.6-91 149.2-91 241.6 0 202.3 164.6 366.9 366.9 366.9S879 587 879 384.7c-0.1-92.2-34.3-176.6-90.8-241.1z"  horiz-adv-x="1024" />

    
    <glyph glyph-name="yonghu1" unicode="&#58988;" d="M917.5-22.9c0 0.6-0.2 1.3-0.2 1.9l-0.2 1.3c0 3.1-0.4 6.2-1.1 9.2-17.4 141.3-109.7 263.4-243.1 321.8 78.3 54.1 124.7 141.9 124.3 235.4 2.9 100.9-50.8 195.5-140.3 246.8-89.4 51.3-200.4 51.3-289.8 0-89.4-51.4-143.1-145.9-140.2-246.9-0.4-93.5 46-181.4 124.5-235.4-132.1-57.8-224-178.2-242.7-317.9-1.4-4.2-2.1-8.6-2.2-13l0.2-3.2 0.2-0.4c-0.5-14.4 7.2-28 19.9-35.4 12.8-7.4 28.7-7.4 41.4 0 12.8 7.4 20.4 20.9 19.9 35.4l-0.2 0.4h0.9c17.4 154.7 146.4 274.8 306 285.1 5.7-0.4 11.4-0.6 17.1-0.6 5.9 0 11.6 0.2 17.3 0.6 159.6-10.3 288.6-130.4 306-285.1h0.9v-0.4c-0.5-14.4 7.2-28 19.9-35.4 12.8-7.4 28.7-7.4 41.5 0s20.4 20.9 19.9 35.4v0.4zM308.4 546.4c2.9 106.4 91.6 191.5 201 192.9 109.4 1.4 200.3-81.5 206-187.8 5.7-106.3-75.9-197.9-184.8-207.7-6.1 0.2-12.3 0.4-18.4 0.4-6.1 0-12.5-0.2-18.6-0.4-106.2 11-186.4 98.7-185.2 202.6z m0 0"  horiz-adv-x="1024" />

    
    <glyph glyph-name="duoren" unicode="&#58989;" d="M727.2 56.5c0 2.6-0.4 5.3-1 8-7 57.1-29.2 111.7-64 158-32.8 43.6-76.2 79-125.9 102.7 59.5 45.2 94.6 115.2 94.3 189.3 2.4 83.9-42.1 162.5-116.1 205.1-73.9 42.6-165.6 42.6-239.5 0-73.9-42.7-118.3-121.3-116-205.2-0.3-74.2 34.8-144.2 94.5-189.3-49.2-23.4-92.3-58.3-125-101.3C94 178.1 71.6 124.3 64 67.9c-1.2-3.7-1.8-7.6-1.9-11.7v-0.3l0.3-4.1 0.1-0.1c0.1-13.3 7.3-25.6 19-32.5 6.1-3.5 12.9-5.3 19.7-5.3 6.8 0 13.6 1.8 19.6 5.3 10.5 6.1 17.3 16.5 18.8 28.2h0.2l0.6 5.3C154 175.2 255.2 269.9 381 278.3c4.6-0.3 9.2-0.5 13.8-0.5 4.7 0 9.3 0.2 14 0.5 125.8-8.3 226.9-103.1 240.6-225.5l0.6-5.3h0.4c1.4-11.6 8.3-22 18.8-28.2 12.2-7.1 27.3-7.1 39.4 0 10.5 6.1 17.3 16.5 18.8 28.2h0.3v6c0 0.7-0.1 1.3-0.2 1.7l-0.3 1.3zM409.7 356.3c-4.5 0.2-9.7 0.3-14.7 0.3-4.8 0-9.7-0.1-14.8-0.3-82.7 8.8-144.4 76.6-143.5 157.9 2.3 83.2 70.8 149.2 156.1 150.3h2.1c84.3 0 153.4-63.9 157.8-146.4 4.5-82.9-58.3-153.9-143-161.8zM958.8 55.1l-0.2 1.4c0 2.6-0.4 5.3-1 8-7 57.1-29.2 111.7-64 158-32.8 43.6-76.2 79-125.9 102.7 59.5 45.2 94.6 115.2 94.3 189.3 2.4 83.9-42 162.5-116 205.1-29.9 17.3-62.8 27.5-96.3 30.8v-0.2c-1.2 0.1-2.5 0.2-3.7 0.2-23.7 0-43-19.3-43-43.2 0-20.8 14.6-38.1 34.1-42.2l-0.1-0.8c79.4-5.1 143-67 147.2-146 3.7-69.3-39.6-130.3-103.3-153l0.1-0.2c-17.3-7.8-29.3-25.3-29.3-45.6 0-22.9 15.3-42.2 36.2-48.1l-0.2-0.5c102.9-25.9 181.1-111.5 193-217.9l0.6-5.3h0.4c1.4-11.6 8.3-22 18.8-28.2 12.2-7.1 27.3-7.1 39.4 0 10.5 6.1 17.3 16.5 18.8 28.2h0.3v6c0 0.6-0.1 1.2-0.2 1.5z"  horiz-adv-x="1024" />

    
    <glyph glyph-name="yonghuzengjia" unicode="&#58990;" d="M908.9 131.7h-72.3V204c0 22.6-18.5 41.1-41.1 41.1s-41.1-18.5-41.1-41.1v-72.3h-72.3c-22.6 0-41.1-18.5-41.1-41.1s18.5-41.1 41.1-41.1h72.3v-72.3c0-22.6 18.5-41.1 41.1-41.1s41.1 18.5 41.1 41.1v72.3h72.3c22.6 0 41.1 18.5 41.1 41.1s-18.5 41.1-41.1 41.1zM676.2 204.2c22.8 0 41.4 18.5 41.4 41.4 0 17.2-10.5 31.9-25.4 38.2-17.3 10.8-35.6 20.5-54.7 28.9 78.3 54.1 124.6 141.8 124.2 235.2 2.9 100.9-50.8 195.3-140.2 246.6-89.4 51.3-200.3 51.3-289.6 0-89.4-51.3-143-145.7-140.2-246.6-0.4-93.5 46-181.3 124.4-235.2-132-57.8-223.8-178-242.5-317.7-1.4-4.2-2.1-8.6-2.2-13l0.2-3.2 0.2-0.4c-0.5-14.4 7.1-28 19.9-35.3 12.8-7.4 28.6-7.4 41.4 0 12.8 7.4 20.4 20.9 19.9 35.3l-0.2 0.4h0.9C171.1 133.3 300 253.4 459.5 263.7c5.7-0.4 11.4-0.6 17.1-0.6 5.9 0 11.6 0.2 17.3 0.6C551 259.9 604 242.3 649.4 214c7.2-6.1 16.6-9.8 26.8-9.8z m-180.8 141c-6.1 0.2-12.3 0.4-18.4 0.4-6.1 0-12.5-0.2-18.6-0.4-106.2 10.9-186.4 98.6-185.2 202.4 2.9 106.3 91.6 191.4 200.9 192.8 109.3 1.4 200.2-81.5 205.9-187.7 5.7-106.1-75.8-197.8-184.6-207.5z"  horiz-adv-x="1024" />

    
    </font>
</defs>
</svg>
